<?xml version="1.0" standalone="no"?> <!DOCTYPE svg PUBLIC "-//W3C//DTD SVG 1.0//EN" "http://www.w3.org/TR/2001/REC-SVG-20010904/DTD/svg10.dtd" > <svg xmlns="http://www.w3.org/2000/svg" width="100%" height="100%">
<defs >
<font id="futuracondensedmedium" horiz-adv-x="649" ><font-face
    font-family="Futura"
    units-per-em="2048"
    panose-1="2 11 5 6 2 2 4 3 2 4"
    ascent="2014"
    descent="-448"
    alphabetic="0" />
<missing-glyph horiz-adv-x="1024" d="M200 0V1544H824V0H200ZM781 43V1501H243V43H781Z" />
<glyph unicode=" " glyph-name="space" horiz-adv-x="424" />
<glyph unicode="!" glyph-name="exclam" horiz-adv-x="571" d="M287 231Q337 231 373 195T409 108Q409 57 373 21Q335 -14 285 -14Q236 -14 198 21Q162 57 162 109Q162 160 198 195Q235 231 287 231ZM185 1544H387V371H185V1544Z" />
<glyph unicode="&quot;" glyph-name="quotedbl" horiz-adv-x="773" d="M283 939H136L93 1544H326L283 939ZM638 939H491L448 1544H681L638 939Z" />
<glyph unicode="#" glyph-name="numbersign" horiz-adv-x="848" d="M772 666V494H608L548 0H383L444 494H313L253 0H89L150 494H4V666H172L201 908H58V1080H223L280 1544H443L386 1080H516L574 1544H738L681 1080H843V908H660L630 666H772ZM495 908H364L335 666H466L495
908Z" />
<glyph unicode="$" glyph-name="dollar" horiz-adv-x="848" d="M376 1700H467V1563Q596 1549 665 1495Q734 1442 766 1332L608 1254Q571 1399 430 1399Q257 1399 257 1185Q257 1084 300 1029Q338 980 506 869Q677 757 731 673Q784 587 784 428Q784 180 672 71Q610
12 467 -14V-152H376V-14Q248 0 183 51Q118 103 75 225L244 307Q270 230 309 200T421 170Q586 170 586 401Q586 507 551 557Q516 608 378 695Q198 808 144 886Q64 996 64 1168Q64 1340 148 1447Q231 1553 376 1563V1700Z" />
<glyph unicode="%" glyph-name="percent" horiz-adv-x="1187" d="M516 1180Q516 818 292 818Q179 818 127 906T74 1184Q74 1373 126 1461T292 1549Q407 1549 461 1460T516 1180ZM380 1180Q380 1311 360 1368T295 1425Q250 1425 231 1371Q213 1317 213 1182Q213
1047 231 993Q250 939 295 939Q340 939 360 995T380 1180ZM913 1544H1040L274 0H147L913 1544ZM1113 335Q1113 -22 894 -22Q782 -22 729 65T676 340Q676 704 893 704Q1113 704 1113 335ZM979 336Q979 466 960 523T895 581Q850 581 832 527Q815 468 815 339Q815
204 833 150Q851 97 895 97Q979 97 979 336Z" />
<glyph unicode="&amp;" glyph-name="ampersand" horiz-adv-x="1051" d="M874 593L1006 488L841 258L1006 0H778L705 120Q591 -9 440 -9Q299 -9 195 101Q93 212 93 366Q93 470 141 562Q189 655 308 777Q184 973 184 1144Q184 1271 268 1354Q353 1436 484 1436Q616
1436 695 1360Q775 1283 775 1160Q775 1055 726 970Q703 928 658 873T544 748L748 414L874 593ZM459 902Q502 947 531 981T575 1042Q606 1094 606 1155Q606 1212 576 1245T497 1279Q446 1279 409 1239Q373 1200 373 1146Q373 1069 459 902ZM404 618Q288 490 288
378Q288 288 339 227Q390 165 462 165Q542 165 619 263L404 618Z" />
<glyph unicode="&apos;" glyph-name="quotesingle" horiz-adv-x="418" d="M283 939H136L93 1544H326L283 939Z" />
<glyph unicode="(" glyph-name="parenleft" horiz-adv-x="601" d="M306 1723L509 1674Q331 1109 331 658Q331 149 509 -395L306 -448Q116 94 116 642Q116 1202 306 1723Z" />
<glyph unicode=")" glyph-name="parenright" horiz-adv-x="601" d="M296 -448L93 -399Q271 166 271 616Q271 1124 93 1670L296 1723Q486 1180 486 632Q486 73 296 -448Z" />
<glyph unicode="*" glyph-name="asterisk" horiz-adv-x="848" d="M380 1699H469L462 1419L726 1512L753 1428L485 1348L655 1125L583 1073L425 1304L266 1073L194 1125L364 1348L96 1428L123 1512L387 1419L380 1699Z" />
<glyph unicode="+" glyph-name="plus" horiz-adv-x="848" d="M63 704V875H338V1146H511V875H785V704H511V431H338V704H63Z" />
<glyph unicode="," glyph-name="comma" horiz-adv-x="424" d="M166 216L332 167L134 -376L29 -347L166 216Z" />
<glyph unicode="-" glyph-name="hyphen" horiz-adv-x="364" d="M0 608H364V452H0V608Z" />
<glyph unicode="." glyph-name="period" horiz-adv-x="424" d="M215 232Q264 232 300 195Q336 159 336 108Q336 57 300 21Q262 -14 213 -14Q187 -14 165 -5T125 21T99 60T89 109Q89 160 125 196Q162 232 215 232Z" />
<glyph unicode="/" glyph-name="slash" horiz-adv-x="923" d="M823 1699H984L64 -424H-99L823 1699Z" />
<glyph unicode="0" glyph-name="zero" horiz-adv-x="848" d="M773 760Q773 344 693 160Q614 -18 424 -18Q234 -18 154 161Q75 335 75 772Q75 1209 154 1383Q233 1563 423 1563Q599 1563 683 1405Q773 1238 773 760ZM561 760Q561 1110 531 1244Q501 1377 422 1377Q343
1377 312 1245Q282 1113 282 770Q282 427 312 294Q343 162 422 162Q500 162 530 293Q561 418 561 760Z" />
<glyph unicode="1" glyph-name="one" horiz-adv-x="848" d="M183 1544H535V0H336V1367H183V1544Z" />
<glyph unicode="2" glyph-name="two" horiz-adv-x="848" d="M302 1042H98L96 1103Q96 1356 172 1459Q249 1563 430 1563Q771 1563 771 1185Q771 930 516 450L393 219Q392 217 387 207T373 178H755V0H77Q94 38 148 151T295 456Q374 624 427 741T507 933Q561 1083
561 1192Q561 1384 428 1384Q300 1384 300 1146L301 1058L302 1042Z" />
<glyph unicode="3" glyph-name="three" horiz-adv-x="848" d="M310 1130H112V1171Q112 1274 129 1348T184 1470T280 1540T419 1563Q589 1563 667 1467T745 1162Q745 990 709 914Q674 837 574 797Q682 760 723 682Q764 605 764 435Q764 202 676 92T402 -18Q84 -18
84 347V363V374Q84 385 85 388H280Q279 371 279 359T278 338Q278 259 312 212T407 165Q446 165 473 180T518 230T544 320T552 453Q552 594 510 656T368 718Q357 718 344 717T314 713V893H343Q464 893 507 945T550 1142Q550 1382 429 1382Q309 1382 309 1177L310
1130Z" />
<glyph unicode="4" glyph-name="four" horiz-adv-x="848" d="M483 1544H676V582H775V423H676V0H483V423H60V600L483 1544ZM483 582V1230L223 582H483Z" />
<glyph unicode="5" glyph-name="five" horiz-adv-x="848" d="M249 1544H740V1365H407L357 977H382Q473 977 543 948T662 863T735 725T760 538Q760 278 647 129Q534 -18 333 -18Q220 -18 88 46L140 230Q247 174 319 174Q421 174 481 266Q541 359 541 516Q541 813
286 813Q223 813 159 794L249 1544Z" />
<glyph unicode="6" glyph-name="six" horiz-adv-x="848" d="M405 1544H626L481 1247Q443 1166 405 1075T324 881Q411 950 491 950Q620 950 690 838Q756 733 756 462Q756 206 679 93Q602 -18 428 -18Q250 -18 171 105Q92 229 92 509Q92 744 154 957Q186 1063 248
1207T405 1544ZM557 463Q557 543 550 599T527 691T487 743T427 760Q392 760 368 744T327 692T304 601T297 465Q297 162 427 162Q557 162 557 463Z" />
<glyph unicode="7" glyph-name="seven" horiz-adv-x="848" d="M99 1544H789L321 0H99L528 1368H99V1544Z" />
<glyph unicode="8" glyph-name="eight" horiz-adv-x="848" d="M576 838Q680 800 719 717T758 448Q758 208 678 95T425 -18Q252 -18 172 95T91 448Q91 634 130 717T273 838Q181 878 143 956Q105 1040 105 1183Q105 1282 123 1354T181 1472T280 1541T425 1563Q509
1563 569 1541T668 1473T725 1354T744 1183Q744 1040 706 956Q668 878 576 838ZM539 1166Q539 1384 424 1384Q310 1384 310 1168Q310 928 425 928Q539 928 539 1166ZM553 424Q553 505 546 562T523 656T483 709T424 726Q357 726 327 657T296 434Q296 165 425 165Q553
165 553 424Z" />
<glyph unicode="9" glyph-name="nine" horiz-adv-x="848" d="M436 0H214L363 300Q403 382 442 468T520 649Q443 587 361 587Q224 587 159 697T94 1041Q94 1321 170 1442T423 1563Q602 1563 679 1441T756 1035Q756 825 708 647Q685 559 642 451T535 207L454 38L436
0ZM553 1068Q553 1373 422 1373Q292 1373 292 1072Q292 914 322 843T422 772Q491 772 522 842T553 1068Z" />
<glyph unicode=":" glyph-name="colon" horiz-adv-x="424" d="M215 232Q264 232 300 195Q336 159 336 108Q336 57 300 21Q262 -14 213 -14Q187 -14 165 -5T125 21T99 60T89 109Q89 160 125 196Q162 232 215 232ZM215 1050Q264 1050 300 1013Q336 977 336 927Q336
875 300 839T213 803Q161 803 125 839Q89 876 89 927Q89 979 125 1014Q162 1050 215 1050Z" />
<glyph unicode=";" glyph-name="semicolon" horiz-adv-x="424" d="M166 216L332 167L134 -376L29 -347L166 216ZM220 1050Q270 1050 306 1013Q342 977 342 927Q342 875 306 839T218 803Q167 803 130 839Q94 875 94 927Q94 980 131 1014Q168 1050 220 1050Z" />
<glyph unicode="&lt;" glyph-name="less" horiz-adv-x="1158" d="M1081 1348V1148L291 781L1081 414V216L77 696V868L1081 1348Z" />
<glyph unicode="=" glyph-name="equal" horiz-adv-x="848" d="M63 824V995H785V824H63ZM63 584V754H785V584H63Z" />
<glyph unicode="&gt;" glyph-name="greater" horiz-adv-x="1158" d="M78 215V415L867 781L78 1149V1347L1081 867V695L78 215Z" />
<glyph unicode="?" glyph-name="question" horiz-adv-x="761" d="M456 360H275V824L321 823Q413 823 445 876T477 1082Q477 1260 452 1322Q428 1390 366 1390Q278 1390 278 1220V1158H93L94 1217Q94 1307 109 1372T159 1479T245 1540T371 1560Q536 1560 602 1457Q669
1357 669 1102Q669 871 623 783Q578 695 456 687V360ZM367 231Q416 231 452 195T488 108Q488 57 452 21Q414 -14 365 -14Q339 -14 317 -5T277 21T251 60T241 109Q241 160 277 195Q314 231 367 231Z" />
<glyph unicode="@" glyph-name="at" horiz-adv-x="1518" d="M1122 1177L1060 653Q1056 625 1055 599T1053 550Q1053 485 1105 485Q1178 485 1237 604Q1296 728 1296 869Q1296 1100 1154 1248Q1013 1397 794 1397Q564 1397 410 1217Q255 1038 255 773Q255 603 329
450Q403 304 532 223Q650 150 820 150Q1020 150 1220 266L1243 279L1315 116L1296 106Q1066 -19 822 -19Q543 -19 353 132Q215 241 139 410Q62 587 62 773Q62 1110 273 1336Q484 1564 793 1564Q1074 1564 1264 1368Q1455 1171 1455 884Q1455 658 1345 491Q1235
326 1084 326Q970 326 919 447Q835 322 721 322Q597 322 515 440Q434 558 434 741Q434 935 531 1065Q629 1196 774 1196Q828 1196 862 1174Q899 1154 945 1096L959 1177H1122ZM914 803Q914 903 878 968Q842 1032 785 1032Q712 1032 662 946Q613 861 613 734Q613
625 646 555T730 485Q802 485 858 581Q914 679 914 803Z" />
<glyph unicode="A" glyph-name="A" horiz-adv-x="835" d="M339 1544H501L832 0H626L568 301H262L203 0H3L339 1544ZM538 462L492 708Q446 959 417 1244Q403 1105 381 963T329 660L291 462H538Z" />
<glyph unicode="B" glyph-name="B" horiz-adv-x="843" d="M119 1544H401Q732 1544 732 1133Q732 976 689 900T537 785Q662 735 708 657Q755 580 755 425Q755 0 391 0H119V1544ZM315 864Q436 864 483 920Q530 979 530 1127Q530 1377 350 1377H334H325Q317 1377
315 1376V864ZM315 178Q443 178 492 233T541 432Q541 580 490 639Q440 699 315 699V178Z" />
<glyph unicode="C" glyph-name="C" horiz-adv-x="781" d="M725 1519V1332Q645 1371 591 1371Q517 1371 464 1335T377 1222T326 1030T309 754Q309 182 602 182Q653 182 725 214V23Q650 -19 557 -19Q88 -19 88 747Q88 1161 202 1363T553 1565Q640 1565 725 1519Z" />
<glyph unicode="D" glyph-name="D" horiz-adv-x="953" d="M119 1544H375Q492 1544 572 1518Q646 1493 704 1429Q791 1333 828 1179Q865 1030 865 752Q865 497 824 336Q784 182 692 101Q579 0 287 0H119V1544ZM327 182Q517 182 581 297Q647 412 647 744Q647 1101
584 1235T353 1369H327V182Z" />
<glyph unicode="E" glyph-name="E" horiz-adv-x="744" d="M119 1544H672V1368H327V879H633V703H327V176H672V0H119V1544Z" />
<glyph unicode="F" glyph-name="F" horiz-adv-x="716" d="M119 1544H675V1368H327V880H641V704H327V0H119V1544Z" />
<glyph unicode="G" glyph-name="G" horiz-adv-x="955" d="M489 812H867V752Q867 301 788 143Q710 -19 496 -19Q275 -19 181 161Q88 341 88 766Q88 1252 190 1413Q286 1564 485 1564Q637 1564 722 1491Q808 1417 856 1248L662 1167Q649 1228 633 1269T598 1334Q560
1381 484 1381Q380 1381 342 1253Q304 1119 304 772Q304 421 343 297T490 173Q589 173 629 261Q670 355 670 563V605V636H489V812Z" />
<glyph unicode="H" glyph-name="H" horiz-adv-x="959" d="M119 1544H327V940H632V1544H840V0H632V764H327V0H119V1544Z" />
<glyph unicode="I" glyph-name="I" horiz-adv-x="446" d="M119 1544H327V0H119V1544Z" />
<glyph unicode="J" glyph-name="J" horiz-adv-x="599" d="M271 1544H480V359Q480 178 427 98Q349 -19 173 -19Q69 -19 -4 21V229Q85 176 134 176Q271 176 271 369V431V1544Z" />
<glyph unicode="K" glyph-name="K" horiz-adv-x="862" d="M119 1544H327V796L617 1544H827L523 796L851 0H617L327 796V0H119V1544Z" />
<glyph unicode="L" glyph-name="L" horiz-adv-x="678" d="M119 1544H327V176H667V0H119V1544Z" />
<glyph unicode="M" glyph-name="M" horiz-adv-x="1168" d="M192 1544H370L506 914Q531 796 551 678T589 429Q591 446 592 455T594 469L623 646L649 814L672 925L793 1544H973L1115 0H916L881 524Q879 564 878 593T876 641L867 848L862 1038Q862 1040 862 1046T860
1064L855 1033Q847 978 841 937T829 868L803 727L793 674L663 0H523L401 582Q376 697 357 815T321 1064L261 0H65L192 1544Z" />
<glyph unicode="N" glyph-name="N" horiz-adv-x="958" d="M119 1544H313L520 928Q610 667 679 371Q654 550 642 695T630 968V1544H839V0H644L411 695Q379 792 351 894T298 1108Q296 1122 292 1142T281 1188Q284 1162 286 1144T289 1112L300 955L311 764Q312 748
312 725T313 673L324 0H119V1544Z" />
<glyph unicode="O" glyph-name="O" horiz-adv-x="979" d="M892 734Q892 325 801 153T496 -19Q271 -19 179 166Q88 347 88 809Q88 1221 178 1392Q269 1564 486 1564Q680 1564 774 1431Q836 1342 864 1178Q892 1026 892 734ZM674 712Q674 1113 638 1244Q602 1376
491 1376Q380 1376 343 1255Q307 1133 307 765Q307 426 345 295Q384 171 491 171Q596 171 635 287Q674 402 674 712Z" />
<glyph unicode="P" glyph-name="P" horiz-adv-x="812" d="M119 1544H393Q591 1544 681 1444Q771 1343 771 1124Q771 816 590 726Q499 685 327 685V0H119V1544ZM327 863Q456 863 505 915Q555 968 555 1103Q555 1241 507 1305T356 1369H327V863Z" />
<glyph unicode="Q" glyph-name="Q" horiz-adv-x="979" d="M936 -23L805 -117L699 34Q604 -19 498 -19Q273 -19 180 171Q88 367 88 827Q88 1229 178 1396Q268 1564 483 1564Q709 1564 801 1379Q892 1198 892 737Q892 320 805 158L936 -23ZM568 490L654 368Q675
516 675 702Q675 1100 637 1240Q599 1375 486 1375Q380 1375 343 1260Q306 1150 306 816Q306 441 344 304Q382 173 492 173Q536 173 576 201L444 391L568 490Z" />
<glyph unicode="R" glyph-name="R" horiz-adv-x="863" d="M119 1544H393Q563 1544 646 1463Q751 1358 751 1142Q751 976 696 876T537 751L821 0H610L327 756V0H119V1544ZM327 860Q448 860 498 916T548 1105Q548 1177 538 1228T505 1311T447 1358T362 1373H327V860Z" />
<glyph unicode="S" glyph-name="S" horiz-adv-x="764" d="M634 1512V1309Q539 1377 463 1377Q381 1377 329 1319Q277 1264 277 1172Q277 1091 314 1033Q333 1002 376 953T489 835Q616 706 662 612Q708 521 708 389Q708 210 607 94Q506 -19 348 -19Q215 -19 121
54V260Q232 179 323 179Q408 179 456 235T504 389Q504 473 467 540Q448 572 414 613T329 706Q250 784 198 844T121 949Q73 1037 73 1171Q73 1352 167 1458Q262 1565 422 1565Q533 1565 634 1512Z" />
<glyph unicode="T" glyph-name="T" horiz-adv-x="669" d="M-4 1544H673V1362H440V0H236V1362H-4V1544Z" />
<glyph unicode="U" glyph-name="U" horiz-adv-x="948" d="M119 1544H323V453Q323 286 353 231Q384 176 475 176Q566 176 595 224Q625 273 625 423V1544H829V423Q829 171 752 82Q660 -19 471 -19Q263 -19 178 111Q119 200 119 453V1544Z" />
<glyph unicode="V" glyph-name="V" horiz-adv-x="757" d="M-4 1544H201L294 974L310 871L343 647Q351 590 357 543T369 458L379 382Q382 405 384 423T388 453L415 632L450 867Q455 899 459 926T468 974L568 1544H762L459 0H294L-4 1544Z" />
<glyph unicode="W" glyph-name="W" horiz-adv-x="1214" d="M3 1544H204L309 827L326 721Q338 635 344 564L355 433Q356 428 357 415T360 382L365 432Q377 563 390 673T420 876L531 1544H691L795 895Q818 751 833 628T859 393Q869 511 881 621T908 837L923 940L1012
1544H1211L938 0H776L667 667Q666 671 662 700T650 783L629 937Q627 955 623 991T613 1082L608 1146Q606 1123 604 1106T601 1078Q596 1012 593 976T588 931L567 783Q560 732 556 703T550 667L437 0H270L3 1544Z" />
<glyph unicode="X" glyph-name="X" horiz-adv-x="769" d="M14 1544H216L323 1245Q386 1068 398 986Q409 1037 422 1085T451 1181L465 1226L564 1544H774L488 784L774 0H564L462 294Q431 382 412 452T385 576Q377 509 358 448L323 338L305 280L216 0H-4L288 784L14 1544Z" />
<glyph unicode="Y" glyph-name="Y" horiz-adv-x="791" d="M-4 1544H216L318 1208Q323 1193 328 1175T340 1136Q397 954 418 830Q436 954 448 1003L480 1141L492 1195L578 1544H795L526 664V0H318V664L-4 1544Z" />
<glyph unicode="Z" glyph-name="Z" horiz-adv-x="773" d="M81 1544H761L297 182H736V0H26L494 1368H81V1544Z" />
<glyph unicode="[" glyph-name="bracketleft" horiz-adv-x="723" d="M154 1699H645V1521H364V-246H645V-424H154V1699Z" />
<glyph unicode="\" glyph-name="backslash" horiz-adv-x="923" d="M108 1699L1031 -424H867L-52 1699H108Z" />
<glyph unicode="]" glyph-name="bracketright" horiz-adv-x="723" d="M568 -424H77V-246H358V1521H77V1699H568V-424Z" />
<glyph unicode="^" glyph-name="asciicircum" horiz-adv-x="1158" d="M261 828H47L447 1550H711L1112 828H896L578 1390L261 828Z" />
<glyph unicode="_" glyph-name="underscore" horiz-adv-x="1158" d="M0 -139H1158V-322H0V-139Z" />
<glyph unicode="`" glyph-name="grave" horiz-adv-x="1158" d="M318 1465L455 1553L624 1248L521 1189L318 1465Z" />
<glyph unicode="a" glyph-name="a" horiz-adv-x="808" d="M699 1035V0H508V133Q467 48 426 16T318 -16Q189 -16 129 116T69 530Q69 799 129 925T318 1052Q436 1052 508 918V1035H699ZM267 522Q267 318 294 237Q322 156 392 156Q456 156 485 240Q514 330 514 517Q514
705 485 795Q456 879 392 879Q324 879 295 799Q267 725 267 522Z" />
<glyph unicode="b" glyph-name="b" horiz-adv-x="808" d="M108 1699H299V918Q319 956 340 982T381 1022Q421 1052 485 1052Q551 1052 599 1022T677 927T723 764T738 529Q738 247 678 116T490 -16Q422 -16 381 16T299 133V0H108V1699ZM540 512Q540 723 512 798Q485
879 415 879Q349 879 322 797Q295 716 295 517Q295 319 322 237Q349 156 415 156Q483 156 512 236Q540 310 540 512Z" />
<glyph unicode="c" glyph-name="c" horiz-adv-x="585" d="M531 1015V820Q491 869 435 869Q277 869 277 527Q277 164 434 164Q478 164 531 203V24Q455 -16 377 -16Q69 -16 69 508Q69 787 145 919T381 1052Q458 1052 531 1015Z" />
<glyph unicode="d" glyph-name="d" horiz-adv-x="808" d="M699 1699V0H508V133Q467 48 426 16T317 -16Q189 -16 129 115T69 529Q69 665 84 764T129 927T208 1021T322 1052Q385 1052 426 1022Q446 1008 467 982T508 918V1699H699ZM267 522Q267 318 294 237Q322
156 392 156Q456 156 485 240Q514 330 514 517Q514 705 485 795Q456 879 392 879Q324 879 295 799Q267 725 267 522Z" />
<glyph unicode="e" glyph-name="e" horiz-adv-x="755" d="M508 349H686Q665 -16 386 -16Q303 -16 244 15T145 111T88 276T69 514Q69 788 145 920T382 1052Q693 1052 693 504V480H256Q256 148 388 148Q508 148 508 349ZM498 618Q486 781 461 832Q435 889 377 889Q318
889 293 832Q268 781 256 618H498Z" />
<glyph unicode="f" glyph-name="f" horiz-adv-x="502" d="M35 1035H131V1396Q131 1573 183 1646T364 1719Q420 1719 494 1692V1490Q448 1515 413 1515Q364 1515 344 1486T323 1388L322 1310V1035H484V883H322V0H131V883H35V1035Z" />
<glyph unicode="g" glyph-name="g" horiz-adv-x="809" d="M509 1035H701V-33Q701 -225 663 -299Q593 -435 382 -435Q243 -435 164 -356Q84 -276 84 -141L85 -109H270Q270 -274 393 -274Q460 -274 484 -232Q509 -192 509 -73V126Q448 -16 322 -16Q192 -16 131 110T69
504Q69 788 128 923Q186 1052 321 1052Q385 1052 425 1021T509 911V1035ZM512 508Q512 879 384 879Q323 879 295 796T267 528Q267 333 296 241Q326 156 396 156Q462 156 487 232Q512 303 512 508Z" />
<glyph unicode="h" glyph-name="h" horiz-adv-x="829" d="M108 1699H299V916Q381 1052 511 1052Q637 1052 691 953Q721 897 721 736V0H530L529 692Q529 797 504 841T418 885Q385 885 363 874T326 837T306 770T299 669V0H108V1699Z" />
<glyph unicode="i" glyph-name="i" horiz-adv-x="407" d="M108 1035H300V0H108V1035ZM198 1475Q250 1475 288 1437T326 1346Q326 1292 288 1254T196 1216Q142 1216 104 1254Q67 1291 67 1347Q67 1399 105 1437Q146 1475 198 1475Z" />
<glyph unicode="j" glyph-name="j" horiz-adv-x="407" d="M108 1035H300V-424H108V1035ZM198 1475Q250 1475 288 1437T326 1346Q326 1292 288 1254T196 1216Q142 1216 104 1254Q67 1291 67 1347Q67 1399 105 1437Q146 1475 198 1475Z" />
<glyph unicode="k" glyph-name="k" horiz-adv-x="801" d="M108 1699H299V574L542 1035H758L494 574L793 0H569L299 550V0H108V1699Z" />
<glyph unicode="l" glyph-name="l" horiz-adv-x="408" d="M108 1699H299V0H108V1699Z" />
<glyph unicode="m" glyph-name="m" horiz-adv-x="1251" d="M108 1035H299V907Q378 1052 509 1052Q652 1052 703 907Q779 1052 919 1052Q1028 1052 1085 995T1143 825V0H951V681Q951 798 929 838Q908 879 847 879Q778 879 753 837Q729 796 729 681V0H531V681Q531
736 526 774T507 835T473 868T421 879Q355 879 327 834T299 681V0H108V1035Z" />
<glyph unicode="n" glyph-name="n" horiz-adv-x="829" d="M108 1035H299V916Q381 1052 511 1052Q637 1052 691 953Q721 897 721 736V0H530L529 692Q529 797 504 841T418 885Q385 885 363 874T326 837T306 770T299 669V0H108V1035Z" />
<glyph unicode="o" glyph-name="o" horiz-adv-x="789" d="M719 509Q719 -16 394 -16Q69 -16 69 517Q69 1052 393 1052Q477 1052 538 1020T640 921T699 752T719 509ZM521 514Q521 718 494 798Q467 879 398 879Q330 879 301 799Q274 719 274 520Q274 321 301 242Q330
162 398 162Q466 162 493 241Q521 315 521 514Z" />
<glyph unicode="p" glyph-name="p" horiz-adv-x="808" d="M108 -424V1035H299V901Q339 986 381 1019T491 1052Q619 1052 678 920T738 505Q738 229 677 108Q617 -16 484 -16Q420 -16 379 13Q359 27 339 53T299 116V-424H108ZM540 512Q540 723 512 798Q485 879 415
879Q349 879 321 795Q293 717 293 517Q293 317 321 239Q350 156 415 156Q483 156 512 236Q540 310 540 512Z" />
<glyph unicode="q" glyph-name="q" horiz-adv-x="808" d="M699 -424H508V116Q488 79 468 54T427 13T380 -9T323 -16Q190 -16 129 108Q69 232 69 505Q69 787 129 919T316 1052Q384 1052 426 1019T508 901V1035H699V-424ZM267 522Q267 318 294 237Q322 156 392 156Q456
156 485 240Q514 330 514 517Q514 705 485 795Q456 879 392 879Q324 879 295 799Q267 725 267 522Z" />
<glyph unicode="r" glyph-name="r" horiz-adv-x="547" d="M108 1035H299V906Q348 988 396 1021T523 1059V859Q503 862 489 862Q386 862 342 809Q299 757 299 627V0H108V1035Z" />
<glyph unicode="s" glyph-name="s" horiz-adv-x="602" d="M508 1014V835Q438 887 361 887Q335 887 313 878T275 854T249 817T239 771Q239 697 373 595Q427 553 463 517T518 449Q557 386 557 290Q557 151 476 67Q396 -16 261 -16Q178 -16 93 33V218Q176 156 250
156Q381 156 381 285Q381 333 357 368Q346 385 322 407T263 458Q142 552 99 616Q57 682 57 775Q57 900 134 980Q212 1059 337 1059Q425 1059 508 1014Z" />
<glyph unicode="t" glyph-name="t" horiz-adv-x="455" d="M131 1325H322V1035H426V883H322V0H131V883H26V1035H131V1325Z" />
<glyph unicode="u" glyph-name="u" horiz-adv-x="832" d="M108 1035H299V343Q301 247 327 206T416 165Q481 165 507 201Q533 239 533 333V416V1035H724V416Q724 199 692 126Q625 -16 414 -16Q248 -16 178 68Q108 153 108 351V1035Z" />
<glyph unicode="v" glyph-name="v" horiz-adv-x="695" d="M8 1035H213L288 707Q311 607 327 496T353 252Q359 283 359 288L382 442Q395 530 433 707L502 1035H687L417 0H288L8 1035Z" />
<glyph unicode="w" glyph-name="w" horiz-adv-x="1039" d="M15 1035H217L275 702Q292 602 305 509T327 328L330 292L334 330Q342 402 350 462T369 574L385 653L456 1035H595L662 653L684 533Q691 499 697 449T709 329L713 292Q731 478 764 653L835 1035H1023L780
0H648L569 395Q555 467 545 542T528 703Q527 713 526 727T523 760Q517 669 506 584T479 413L399 0H267L15 1035Z" />
<glyph unicode="x" glyph-name="x" horiz-adv-x="770" d="M8 1035H234L325 835Q341 800 355 762T380 680Q388 718 399 753T424 822L437 852L512 1035H713L479 546L762 0H534L443 198Q376 337 364 420Q355 340 300 216L208 0H8L267 546L8 1035Z" />
<glyph unicode="y" glyph-name="y" horiz-adv-x="755" d="M8 1035H224L376 313L554 1035H748L325 -424H124L283 83L8 1035Z" />
<glyph unicode="z" glyph-name="z" horiz-adv-x="691" d="M59 1035H660L314 173H642V0H31L389 866H59V1035Z" />
<glyph unicode="{" glyph-name="braceleft" horiz-adv-x="618" d="M307 634Q367 574 387 520Q408 466 408 370V-44L410 -93Q410 -187 431 -212Q454 -238 530 -238H548H587V-425H514Q354 -427 280 -336T205 -49V364Q205 448 183 485Q161 523 105 537Q100 539 96
540T88 542L76 545V737Q86 749 105 753Q205 772 205 914V1355Q205 1702 503 1702L550 1701Q574 1701 587 1691V1505H528Q449 1505 428 1473Q408 1441 408 1318V897Q408 848 403 810T385 740T354 683T307 634Z" />
<glyph unicode="|" glyph-name="bar" horiz-adv-x="1158" d="M479 1544H680V-385H479V1544Z" />
<glyph unicode="}" glyph-name="braceright" horiz-adv-x="618" d="M311 639Q253 700 230 754Q210 814 210 904V1319L208 1368Q208 1461 186 1486Q165 1513 88 1513H70H31V1700H104Q264 1702 338 1611T413 1324V910Q413 825 434 788Q456 751 513 737Q518 735 522
734T530 732L542 729V537Q532 525 513 521Q413 502 413 359V-80Q413 -427 114 -427L67 -426Q44 -426 31 -416V-230H89Q168 -230 189 -198Q210 -167 210 -43V377Q210 480 232 533Q254 591 311 639Z" />
<glyph unicode="~" glyph-name="asciitilde" horiz-adv-x="1544" d="M333 1333L213 1411Q291 1573 360 1633Q430 1694 540 1694Q630 1694 794 1621Q944 1554 1011 1554Q1076 1554 1116 1585Q1158 1615 1208 1699L1331 1627Q1295 1554 1258 1502T1178 1417T1089
1368T984 1352Q906 1352 781 1407L657 1459Q579 1492 524 1492Q417 1492 333 1333Z" />
</font>
</defs>
</svg>
