<?xml version="1.0" standalone="no"?> <!DOCTYPE svg PUBLIC "-//W3C//DTD SVG 1.0//EN" "http://www.w3.org/TR/2001/REC-SVG-20010904/DTD/svg10.dtd" > <svg xmlns="http://www.w3.org/2000/svg" width="100%" height="100%">
<defs >
<font id="chronicledispsemibold" horiz-adv-x="868" ><font-face
    font-family="Chronicle Display Semi"
    units-per-em="2048"
    panose-1="0 0 0 0 0 0 0 0 0 0"
    ascent="1638"
    descent="-410"
    alphabetic="0" />
<missing-glyph horiz-adv-x="1024" d="M0 -410V1638H1024V-410H0ZM145 1536L512 737L879 1536H145ZM102 -156L455 614L102 1384V-156ZM922 1384L569 614L922 -156V1384ZM512 492L145 -307H879L512 492Z" />
<glyph unicode=" " glyph-name="space" horiz-adv-x="382" />
<glyph unicode="!" glyph-name="exclam" horiz-adv-x="573" d="M270 397Q256 606 207 921T158 1319Q158 1400 191 1442T287 1485Q349 1485 383 1442T418 1319Q418 1234 368 919T303 397H270ZM287 -33Q228 -33 188 7T147 102Q147 159 188 199T287 240T385 200T426
104Q426 47 386 7T287 -33Z" />
<glyph unicode="&quot;" glyph-name="quotedbl" horiz-adv-x="888" d="M541 881L512 891L553 1124Q597 1339 610 1372Q644 1442 711 1442Q759 1442 789 1410T819 1333Q819 1311 809 1284Q790 1231 676 1071L541 881ZM166 881L139 891L180 1124Q186 1154 196 1202T209
1267T219 1310T229 1348T238 1372Q268 1442 336 1442Q384 1442 415 1410T446 1333Q446 1311 436 1284Q412 1227 301 1071L166 881Z" />
<glyph unicode="#" glyph-name="numbersign" horiz-adv-x="1443" d="M657 1444L567 987H997L1090 1444H1143L1053 987H1374V944H1044L942 430H1286V387H934L840 -86H786L881 387H449L354 -86H301L395 387H78V430H403L504 944H168V987H512L604 1444H657ZM559 944L457
430H889L989 944H559Z" />
<glyph unicode="$" glyph-name="dollar" horiz-adv-x="1157" d="M561 -131V39Q434 42 330 78T165 179T104 322Q104 375 141 418T246 461Q304 461 339 423T375 332Q375 292 351 257T281 201Q310 156 389 121T561 80V584L526 596Q475 613 444 624T368 654T295 692T235
737T185 794T155 864T143 950Q143 1055 203 1137T359 1264T567 1315V1464H621V1317Q795 1313 912 1238T1030 1057Q1030 1003 998 965T909 926Q845 926 812 961T778 1051Q778 1086 801 1119T856 1167Q819 1211 759 1241T621 1276V805L676 786Q832 734 896 696Q1046
608 1054 446Q1055 435 1055 424Q1055 353 1029 288T950 168T811 78T614 39V-131H561ZM868 305Q868 402 813 456T614 563V80Q740 86 804 146T868 305ZM342 1053Q342 971 394 921T567 825V1274Q464 1268 403 1211T342 1053Z" />
<glyph unicode="%" glyph-name="percent" horiz-adv-x="1667" d="M1210 20Q1276 20 1336 68T1437 189T1500 343T1524 494Q1524 591 1488 641T1384 692T1258 644T1161 521T1101 360T1079 195Q1079 108 1115 64T1210 20ZM1188 -29Q1053 -29 978 53T903 274Q903 390
963 503T1126 690T1341 764Q1450 764 1512 694T1575 496Q1575 444 1560 377T1511 239T1434 108T1325 10T1188 -29ZM723 1114Q723 1150 717 1182Q610 1215 514 1294Q444 1266 389 1184T306 1004T279 815Q279 728 315 685T410 641Q476 641 536 689T636 809T699 963T723
1114ZM543 1384Q613 1384 666 1351T748 1255Q831 1219 932 1219Q1121 1219 1309 1415H1364L381 -53H289L1221 1278L1214 1284Q1081 1159 877 1159Q827 1159 772 1169Q774 1153 774 1116Q774 1063 759 996T711 858T634 728T525 630T387 592Q254 592 178 674T102
895Q102 1010 163 1123T327 1310T543 1384Z" />
<glyph unicode="&amp;" glyph-name="ampersand" horiz-adv-x="1562" d="M684 793Q777 865 812 936T848 1116Q848 1220 804 1277T674 1335Q594 1335 544 1278T494 1128Q494 1049 540 971T684 793ZM506 686Q413 627 370 550T326 360Q326 234 406 158T612 82Q695
82 761 118T891 229Q828 338 722 464T506 686ZM1024 410Q1095 571 1181 660T1354 750Q1429 750 1470 709T1511 600Q1511 545 1476 508T1384 471Q1335 471 1301 504T1266 586Q1266 615 1278 633L1272 639Q1154 586 1051 379Q1140 221 1208 158T1354 94Q1415 94 1491
154L1507 135Q1343 -35 1206 -35Q1139 -35 1088 -9T998 64T911 197Q749 -35 494 -35Q309 -35 206 66T102 319Q102 584 479 713Q394 804 354 873T313 1026Q313 1177 415 1271T694 1366Q846 1366 937 1290T1028 1100Q1028 998 955 920T719 764Q925 582 1024 410Z"
/>
<glyph unicode="&apos;" glyph-name="quotesingle" horiz-adv-x="516" d="M166 881L139 891L180 1124Q186 1154 196 1202T209 1267T219 1310T229 1348T238 1372Q268 1442 336 1442Q384 1442 415 1410T446 1333Q446 1311 436 1284Q412 1227 301 1071L166 881Z" />
<glyph unicode="(" glyph-name="parenleft" horiz-adv-x="784" d="M831 -340Q731 -299 638 -241T454 -95T298 94T191 330T150 612T190 893T297 1130T454 1320T637 1465T831 1565L844 1540Q731 1474 649 1397T503 1211T406 952T373 612Q373 422 405 273T502 14T649
-172T844 -315L831 -340Z" />
<glyph unicode=")" glyph-name="parenright" horiz-adv-x="784" d="M-49 -340L-61 -315Q52 -250 134 -173T282 14T379 272T412 612Q412 803 380 952T282 1210T135 1397T-61 1540L-49 1565Q51 1524 144 1466T328 1320T485 1131T592 894T633 612T593 331T486 94T329
-95T145 -240T-49 -340Z" />
<glyph unicode="*" glyph-name="asterisk" horiz-adv-x="866" d="M545 791Q511 780 485 797T444 858Q434 890 434 1108L416 1114Q412 1109 386 1072T340 1010T297 956T260 918Q186 866 143 924Q123 951 130 982T172 1038Q195 1054 275 1081T408 1124V1145Q199
1213 174 1231Q139 1255 131 1287T143 1346Q165 1374 195 1375T260 1350Q273 1341 297 1312T340 1257T385 1195T416 1153L434 1159Q434 1377 444 1411Q458 1452 484 1469T545 1477Q577 1467 587 1437T586 1364Q573 1317 444 1155L457 1143Q465 1145 568 1176T698
1208Q742 1208 766 1189T791 1135Q791 1061 698 1061Q678 1061 630 1074T526 1105T457 1126L444 1114Q573 943 586 901Q598 861 588 832T545 791Z" />
<glyph unicode="+" glyph-name="plus" horiz-adv-x="1138" d="M111 645V690H545V1122H598V690H1028V645H598V207H545V645H111Z" />
<glyph unicode="," glyph-name="comma" horiz-adv-x="477" d="M59 -309L45 -285Q150 -233 213 -155T285 -8L276 -4Q250 -20 217 -20Q167 -20 132 15T96 102Q96 158 134 199T227 240Q300 240 342 192T385 63Q385 -56 302 -152T59 -309Z" />
<glyph unicode="-" glyph-name="hyphen" horiz-adv-x="749" d="M113 489V573H637V489H113Z" />
<glyph unicode="." glyph-name="period" horiz-adv-x="477" d="M240 -33Q181 -33 140 7T98 102Q98 159 139 199T240 240Q297 240 337 200T377 104Q377 47 337 7T240 -33Z" />
<glyph unicode="/" glyph-name="slash" horiz-adv-x="935" d="M16 -440L451 543L877 1528H938L504 543L78 -440H16Z" />
<glyph unicode="0" glyph-name="zero" horiz-adv-x="1255" d="M627 -29Q469 -29 344 63T149 316T80 674Q80 869 151 1032T349 1289T629 1384Q786 1384 912 1291T1107 1038T1176 682Q1176 487 1104 324T906 66T627 -29ZM637 8Q788 8 849 162T911 678Q911 1033 842
1190T618 1348Q468 1348 405 1193T342 678Q342 322 412 165T637 8Z" />
<glyph unicode="1" glyph-name="one" horiz-adv-x="870" d="M76 0V27Q220 29 277 57T334 156V1141Q334 1190 325 1218T287 1267T208 1295T72 1307V1331L563 1372V156Q563 85 618 57T821 27V0H76Z" />
<glyph unicode="2" glyph-name="two" horiz-adv-x="1146" d="M104 0V143L424 408Q632 575 709 705T786 1016Q786 1187 720 1267T537 1348Q464 1348 392 1312T289 1219Q406 1169 406 1063Q406 1000 368 955T262 909Q194 909 153 954T111 1067Q111 1159 175 1232T343
1345T563 1384Q786 1384 909 1280T1032 1014Q1032 922 984 838T836 662T555 438L246 203V193H776Q835 193 870 200T934 233T982 298T1026 410L1053 408L1047 0H104Z" />
<glyph unicode="3" glyph-name="three" horiz-adv-x="1140" d="M532 -29Q343 -29 209 48T74 246Q74 312 115 357T223 403Q287 403 322 361T358 260Q358 212 331 175T264 117Q292 73 366 41T535 8Q678 8 745 93T813 354Q813 518 728 595T449 672H389V717H426Q528
717 596 737T705 802T761 906T778 1055Q778 1205 715 1276T524 1348Q456 1348 392 1319T293 1243Q333 1229 364 1191T395 1102Q395 1044 360 1001T260 958Q197 958 157 999T117 1104Q117 1225 244 1304T555 1384Q781 1384 903 1294T1026 1061Q1026 939 919 843T592
700V694Q815 686 938 599T1061 360Q1061 189 921 80T532 -29Z" />
<glyph unicode="4" glyph-name="four" horiz-adv-x="1189" d="M1157 422H868V152Q868 85 913 57T1059 27V0H440V27Q540 29 589 57T639 152V422H45V516L725 1356H868V559H1157V422ZM631 1157L154 559H639V1157H631Z" />
<glyph unicode="5" glyph-name="five" horiz-adv-x="1124" d="M537 -29Q422 -29 323 2T159 96T94 244Q94 310 135 355T244 401Q306 401 341 361T377 266Q377 214 344 173T272 113Q302 71 370 40T520 8Q669 8 733 108T797 414Q797 772 518 772Q368 772 219 670L180
688L205 1356H1006L977 1151H246L229 721Q302 769 391 795T563 821Q806 821 926 710T1047 418Q1047 331 1012 251T912 109T751 9T537 -29Z" />
<glyph unicode="6" glyph-name="six" horiz-adv-x="1171" d="M606 -29Q377 -29 233 129T88 537Q88 879 307 1096Q435 1224 593 1293T1004 1391V1366Q703 1293 536 1131T332 678L340 676Q379 774 476 831T688 889Q870 889 985 775T1100 479Q1100 339 1042 225T869
41T606 -29ZM616 6Q743 6 798 116T854 446Q854 647 800 742T631 838Q573 838 521 813T427 739T359 607T334 416Q334 219 412 113T616 6Z" />
<glyph unicode="7" glyph-name="seven" horiz-adv-x="1071" d="M209 -20V-6L920 1165H348Q254 1165 214 1120T131 922H106L121 1356H1044V1333L690 555L436 -20H209Z" />
<glyph unicode="8" glyph-name="eight" horiz-adv-x="1142" d="M84 317Q84 423 168 514T395 659Q262 722 193 806T123 1006Q123 1167 256 1275T573 1384Q763 1384 893 1295T1024 1069Q1024 964 949 888T729 750Q901 680 984 589T1067 367Q1067 257 996 165T815
22T586 -29Q355 -29 220 67T84 317ZM502 616Q460 631 449 637Q372 587 329 507T285 330Q285 182 361 95T571 8Q701 8 776 73T852 281Q852 395 768 472T502 616ZM330 1090Q330 980 411 908T664 774L688 764Q761 815 792 884T823 1053Q823 1187 755 1266T567 1346Q457
1346 394 1283T330 1090Z" />
<glyph unicode="9" glyph-name="nine" horiz-adv-x="1171" d="M170 -37V-12Q463 57 632 223T840 678L831 680Q794 582 702 525T504 467Q319 467 196 584T72 893Q72 991 109 1080T211 1236T372 1344T582 1384Q813 1384 948 1228T1083 813Q1083 475 866 260Q738
132 580 62T170 -37ZM563 518Q613 518 661 545T749 622T815 755T840 938Q840 1135 768 1242T575 1350Q446 1350 382 1238T317 915Q317 518 563 518Z" />
<glyph unicode=":" glyph-name="colon" horiz-adv-x="489" d="M246 561Q186 561 146 600T106 696Q106 754 146 794T246 834Q304 834 343 794T383 698Q383 641 344 601T246 561ZM246 -33Q187 -33 147 7T106 102Q106 160 146 200T246 240Q304 240 343 200T383 104Q383
47 344 7T246 -33Z" />
<glyph unicode=";" glyph-name="semicolon" horiz-adv-x="489" d="M246 561Q186 561 146 600T106 696Q106 754 146 794T246 834Q304 834 343 794T383 698Q383 641 344 601T246 561ZM66 -309L51 -285Q156 -233 219 -155T291 -8L283 -4Q256 -20 223 -20Q174 -20
139 15T104 102Q104 159 141 199T233 240Q306 240 348 192T391 63Q391 -56 309 -152T66 -309Z" />
<glyph unicode="&lt;" glyph-name="less" horiz-adv-x="1136" d="M172 641V690L967 1126V1065L233 666L967 268V207L172 641Z" />
<glyph unicode="=" glyph-name="equal" horiz-adv-x="1138" d="M121 440V485H1018V440H121ZM121 846V891H1018V846H121Z" />
<glyph unicode="&gt;" glyph-name="greater" horiz-adv-x="1136" d="M967 643L172 207V268L903 668L172 1065V1126L967 692V643Z" />
<glyph unicode="?" glyph-name="question" horiz-adv-x="985" d="M393 397V723Q487 749 548 784T645 869T693 978T707 1120Q707 1446 440 1446Q362 1446 298 1413T203 1327Q262 1311 293 1271T324 1178Q324 1118 287 1074T182 1030T72 1075T29 1188Q29 1274 88
1342T248 1446T471 1483Q689 1483 816 1378T944 1120Q944 962 817 856T449 696V397H393ZM424 -33Q365 -33 325 6T285 102Q285 159 325 199T426 240Q484 240 523 200T563 104Q563 47 523 7T424 -33Z" />
<glyph unicode="@" glyph-name="at" horiz-adv-x="1861" d="M961 -299Q720 -299 531 -197T233 96T125 535Q125 782 236 979T547 1289T999 1401Q1200 1401 1369 1313T1637 1065T1737 709Q1737 568 1696 454T1587 269T1438 161T1270 123Q1140 123 1082 166T1014
293H1008Q948 217 888 179T752 141Q641 141 576 217T510 424Q510 519 550 619T654 798T807 928T985 979Q1057 979 1097 951T1163 866H1169L1200 963L1384 981L1286 692L1202 393Q1170 287 1198 229T1309 170Q1375 170 1442 208T1566 312T1657 483T1692 707Q1692
842 1639 963T1493 1172T1269 1311T989 1362Q752 1362 564 1252T273 955T170 545Q170 374 226 227T384 -28T637 -196T971 -258Q1128 -258 1247 -216T1481 -90L1503 -119Q1383 -207 1255 -253T961 -299ZM834 223Q931 223 1014 365L1143 799Q1112 932 1012 932Q949
932 889 878T789 744T723 576T698 420Q698 327 733 275T834 223Z" />
<glyph unicode="A" glyph-name="A" horiz-adv-x="1404" d="M965 195L842 547H358L289 369Q242 246 241 178T280 77T418 27V0H-61V27Q41 54 105 127T233 365L670 1468H756L1214 223Q1254 115 1296 79T1454 27V0H782V27Q925 34 961 70T965 195ZM373 588H827L614
1192H606L373 588Z" />
<glyph unicode="B" glyph-name="B" horiz-adv-x="1404" d="M68 0V27Q196 31 243 63T291 162V1268Q291 1334 243 1366T68 1403V1427H711Q835 1427 932 1408T1091 1358T1193 1282T1249 1189T1266 1085Q1266 1026 1243 974T1173 876T1043 800T852 760V752Q1084 742
1203 652T1323 406Q1323 343 1305 287T1243 177T1133 85T963 23T729 0H68ZM530 772H713Q878 772 947 849T1016 1079Q1016 1149 1002 1201T955 1298T859 1366T705 1389H530V772ZM530 39H737Q834 39 899 60T1000 129T1052 241T1067 401Q1067 552 983 642T719 733H530V39Z"
/>
<glyph unicode="C" glyph-name="C" horiz-adv-x="1458" d="M791 -35Q475 -35 283 163T90 692Q90 858 149 1002T308 1247T546 1405T838 1462Q1041 1462 1206 1378L1296 1475H1317V977H1290Q1204 1200 1088 1311T811 1423Q717 1423 637 1380T495 1253T396 1031T360
715Q360 576 388 462T465 271T579 142T716 67T864 43Q1033 43 1157 136T1354 387L1389 369Q1353 288 1303 220T1182 93T1010 -1T791 -35Z" />
<glyph unicode="D" glyph-name="D" horiz-adv-x="1570" d="M68 0V27Q196 31 243 63T291 162V1268Q291 1334 243 1366T68 1403V1427H709Q895 1427 1043 1375T1286 1231T1431 1013T1481 739Q1481 623 1454 517T1368 315T1222 151T1011 41T733 0H68ZM530 39H668Q825
39 926 71T1092 184T1183 393T1210 723Q1210 882 1188 997T1125 1187T1017 1308T868 1371T674 1389H530V39Z" />
<glyph unicode="E" glyph-name="E" horiz-adv-x="1425" d="M68 0V27Q196 31 243 63T291 162V1268Q291 1334 243 1366T68 1403V1427H1255L1262 967L1233 963Q1201 1041 1175 1096T1116 1202T1051 1285T977 1342T886 1378T776 1389H530V760H641Q772 760 844 820T956
1040H983V440H956Q916 599 844 660T641 721H530V39H772Q879 39 956 64T1093 148T1198 285T1292 489L1321 487L1311 0H68Z" />
<glyph unicode="F" glyph-name="F" horiz-adv-x="1347" d="M68 0V27Q196 31 243 63T291 162V1268Q291 1333 244 1365T68 1401V1427H1249L1266 956L1239 954Q1189 1076 1146 1152T1047 1285T921 1365T756 1389H530V741H641Q772 741 842 800T952 1018H979V422H952Q912
581 842 640T641 700H530V162Q530 94 577 63T758 27V0H68Z" />
<glyph unicode="G" glyph-name="G" horiz-adv-x="1538" d="M834 -35Q717 -35 608 -5T405 88T240 238T130 447T90 711Q90 842 130 960T241 1169T406 1326T610 1427T836 1462Q1041 1462 1206 1378L1298 1475H1321V1001H1292Q1119 1423 817 1423Q745 1423 681 1400T557
1322T456 1188T388 986T362 715Q362 566 389 445T461 242T567 107T695 28T834 4Q1010 4 1112 90V477Q1112 545 1062 581T885 623V649H1505V623Q1409 618 1378 588T1346 477V100Q1244 36 1106 1T834 -35Z" />
<glyph unicode="H" glyph-name="H" horiz-adv-x="1699" d="M68 0V27Q196 31 243 62T291 160V1268Q291 1335 244 1367T68 1403V1427H739V1403Q653 1400 607 1384T545 1342T530 1268V762H1167V1268Q1167 1315 1152 1341T1093 1384T963 1403V1427H1630V1403Q1502
1399 1455 1367T1407 1268V160Q1407 94 1454 63T1630 27V0H963V27Q1086 31 1126 60T1167 160V719H530V160Q530 90 571 61T739 27V0H68Z" />
<glyph unicode="I" glyph-name="I" horiz-adv-x="860" d="M82 0V27Q215 31 263 63T311 162V1268Q311 1334 263 1366T82 1403V1427H778V1403Q646 1399 598 1367T549 1268V162Q549 95 597 63T778 27V0H82Z" />
<glyph unicode="J" glyph-name="J" horiz-adv-x="1157" d="M457 -35Q269 -35 166 40T63 229Q63 303 106 352T215 401Q278 401 319 360T360 256Q360 191 318 144T201 90Q284 14 412 14T596 98T653 367V1268Q653 1334 603 1366T418 1403V1427H1112V1403Q985 1399
938 1367T891 1268V422Q891 202 782 84T457 -35Z" />
<glyph unicode="K" glyph-name="K" horiz-adv-x="1548" d="M524 647L1010 1141Q1057 1190 1079 1231T1100 1309T1057 1369T940 1403V1427H1503V1403Q1377 1379 1281 1314T1022 1085L813 881L1249 274Q1307 195 1336 159T1403 91T1475 48T1567 27V0H928V27Q1041
36 1060 76T1016 211L657 719L524 588V160Q524 90 563 61T721 27V0H61V27Q190 31 237 62T285 160V1268Q285 1335 237 1367T61 1403V1427H733V1403Q647 1400 601 1384T539 1342T524 1268V647Z" />
<glyph unicode="L" glyph-name="L" horiz-adv-x="1296" d="M61 0V27Q189 31 237 63T285 162V1268Q285 1334 237 1366T61 1403V1427H735V1403Q644 1400 598 1384T538 1341T524 1268V39H684Q793 39 868 59T1008 131T1121 265T1225 481L1253 479L1233 0H61Z" />
<glyph unicode="M" glyph-name="M" horiz-adv-x="1998" d="M68 0V27Q210 49 262 118T315 342V1174Q315 1274 254 1337T68 1403V1427H582L1028 324H1036L1458 1427H1929V1403Q1803 1399 1755 1366T1706 1268V162Q1706 96 1754 64T1929 27V0H1262V27Q1347 30 1392
46T1453 88T1468 162V1290H1458L963 -2H915L377 1294H367V342Q367 186 420 117T625 27V0H68Z" />
<glyph unicode="N" glyph-name="N" horiz-adv-x="1628" d="M1300 -31L369 1196H367V342Q367 187 421 117T629 27V0H68V27Q210 49 263 119T317 342V1165Q317 1267 256 1332T68 1403V1427H504L1317 346H1319V1087Q1319 1239 1258 1310T1044 1403V1427H1608V1403Q1467
1379 1418 1311T1368 1087V-31H1300Z" />
<glyph unicode="O" glyph-name="O" horiz-adv-x="1568" d="M784 -35Q643 -35 517 18T296 167T146 403T90 711Q90 875 147 1017T299 1256T520 1407T784 1462Q925 1462 1051 1409T1272 1261T1421 1024T1477 717Q1477 552 1420 410T1268 172T1047 20T784 -35ZM793
4Q892 4 965 40T1094 158T1178 378T1206 713Q1206 871 1186 992T1128 1195T1037 1327T918 1401T774 1423Q675 1423 602 1387T473 1269T390 1050T362 715Q362 557 382 435T439 233T531 100T650 26T793 4Z" />
<glyph unicode="P" glyph-name="P" horiz-adv-x="1337" d="M68 0V27Q196 31 243 63T291 162V1268Q291 1334 243 1366T68 1403V1427H676Q1268 1427 1268 1034Q1268 969 1250 912T1187 802T1075 712T903 652T666 629H530V162Q530 92 579 62T768 27V0H68ZM530 668H668Q751
668 811 684T909 730T969 806T999 908T1008 1036Q1008 1118 993 1178T942 1288T840 1363T676 1389H530V668Z" />
<glyph unicode="Q" glyph-name="Q" horiz-adv-x="1568" d="M793 8Q892 8 965 44T1094 161T1178 380T1206 715Q1206 872 1186 993T1128 1195T1037 1327T918 1401T774 1423Q675 1423 602 1387T473 1271T390 1052T362 717Q362 520 392 381T482 161T617 44T793 8ZM868
-27Q924 -46 978 -88T1072 -177T1152 -266T1233 -337T1317 -365Q1372 -365 1372 -311Q1372 -292 1356 -274T1319 -241T1283 -202T1266 -147Q1266 -101 1297 -67T1380 -33Q1435 -33 1471 -75T1507 -176Q1507 -286 1417 -359T1186 -432Q1108 -432 1038 -400T916 -321T819
-228T725 -150T629 -117Q564 -117 497 -154T344 -272L322 -248Q492 -64 657 -20Q537 1 434 61T254 215T134 436T90 713Q90 877 147 1018T299 1256T520 1407T784 1462Q925 1462 1051 1409T1272 1261T1421 1025T1477 719Q1477 517 1393 352T1172 91T868 -27Z" />
<glyph unicode="R" glyph-name="R" horiz-adv-x="1462" d="M530 737H702Q803 737 869 757T971 823T1020 926T1034 1071Q1034 1147 1017 1203T959 1303T848 1367T676 1389H530V737ZM530 698V162Q530 93 575 62T745 27V0H68V27Q196 31 243 63T291 162V1268Q291 1334
243 1366T68 1403V1427H713Q867 1427 981 1401T1162 1326T1262 1217T1294 1081Q1294 786 860 721V715Q949 712 1015 694T1125 647T1196 573T1240 478T1264 362L1278 246Q1289 174 1301 136T1342 74T1407 44T1516 37V12Q1420 -10 1305 -10Q1222 -10 1170 4T1088
52T1044 130T1022 250L1001 438Q992 519 976 566T924 645T833 687T686 698H530Z" />
<glyph unicode="S" glyph-name="S" horiz-adv-x="1187" d="M113 -37V475H141Q242 252 358 132T629 12Q770 12 850 91T930 276Q930 343 908 392T835 481T721 550T553 616Q389 674 328 707Q178 788 146 924Q135 967 135 1018Q135 1217 271 1336T618 1456Q778 1456
926 1386L999 1468H1024V1012H995Q910 1216 810 1316T586 1417Q475 1417 397 1349T319 1165Q319 1100 342 1053T417 968T529 905T688 846Q744 827 773 817T852 784T930 743T993 693T1047 627T1078 546T1092 442Q1092 354 1065 273T982 123T829 13T604 -29Q519 -29
425 -3T260 63L137 -37H113Z" />
<glyph unicode="T" glyph-name="T" horiz-adv-x="1433" d="M356 0V27Q489 31 544 64T600 162V1389H520Q409 1389 309 1288T109 981L80 983L92 1427H1348L1360 983L1331 981Q1232 1182 1131 1285T918 1389H838V162Q838 97 893 64T1081 27V0H356Z" />
<glyph unicode="U" glyph-name="U" horiz-adv-x="1617" d="M825 -35Q557 -35 413 80T268 416V1268Q268 1333 220 1366T45 1403V1427H715V1403Q591 1399 550 1368T508 1268V440Q508 35 924 35Q1091 35 1186 129Q1300 245 1300 461V1087Q1300 1240 1240 1310T1026
1403V1427H1591V1403Q1450 1379 1401 1311T1352 1087V444Q1352 221 1221 93T825 -35Z" />
<glyph unicode="V" glyph-name="V" horiz-adv-x="1447" d="M698 -37L225 1192Q196 1270 171 1307T102 1367T-18 1403V1427H651V1403Q510 1396 474 1357T471 1229L831 262H842L1167 1116Q1220 1249 1189 1313T1022 1403V1427H1499V1403Q1392 1380 1333 1312T1202
1065L770 -37H698Z" />
<glyph unicode="W" glyph-name="W" horiz-adv-x="2109" d="M1051 1061L1008 1194Q968 1315 925 1353T778 1403V1427H1403V1403Q1277 1396 1245 1361T1245 1231L1544 311H1552L1804 1110Q1849 1257 1816 1317T1651 1403V1427H2136V1403Q2022 1383 1961 1311T1845
1069L1493 -37H1421L1075 995L702 -37H631L233 1194Q208 1271 183 1309T115 1369T-6 1403V1427H629V1403Q548 1398 509 1378T466 1322T479 1231L760 307H768L1051 1061Z" />
<glyph unicode="X" glyph-name="X" horiz-adv-x="1454" d="M795 831L1014 1141Q1093 1251 1068 1320T915 1403V1427H1436V1403Q1319 1385 1245 1326T1047 1098L821 791L1210 199Q1250 140 1278 112T1356 62T1489 27V0H815V27Q886 31 925 43T976 79T980 130T944
201L672 641L420 285Q341 174 367 107T518 27V0H-4V27Q79 39 132 65T242 149T387 328L643 680L285 1227Q245 1289 216 1318T138 1368T2 1403V1427H678V1403Q592 1399 552 1376T514 1314T551 1221L795 831Z" />
<glyph unicode="Y" glyph-name="Y" horiz-adv-x="1386" d="M791 682L1057 1149Q1087 1201 1101 1235T1116 1298T1100 1346T1047 1378T954 1403V1427H1427V1403Q1321 1384 1254 1328T1098 1118L817 637V162Q817 95 865 63T1047 27V0H350V27Q442 30 493 47T562 90T580
162V596L219 1233Q173 1313 126 1348T-14 1403V1427H645V1403Q546 1397 502 1376T459 1317T492 1225L791 682Z" />
<glyph unicode="Z" glyph-name="Z" horiz-adv-x="1331" d="M72 0L70 23L961 1386H584Q473 1386 374 1293T152 981L125 985L160 1427H1251L1253 1405L362 41H799Q859 41 909 63T1011 142T1110 270T1229 465L1257 461L1229 0H72Z" />
<glyph unicode="[" glyph-name="bracketleft" horiz-adv-x="751" d="M203 -338V1565H799V1522H395V-295H799V-338H203Z" />
<glyph unicode="\" glyph-name="backslash" horiz-adv-x="935" d="M856 -440L430 543L-4 1528H57L483 543L918 -440H856Z" />
<glyph unicode="]" glyph-name="bracketright" horiz-adv-x="751" d="M-47 -338V-295H356V1522H-47V1565H549V-338H-47Z" />
<glyph unicode="^" glyph-name="asciicircum" horiz-adv-x="727" d="M47 1096L352 1561H387L682 1096H633L365 1372L96 1096H47Z" />
<glyph unicode="_" glyph-name="underscore" horiz-adv-x="901" d="M-4 0V63H905V0H-4Z" />
<glyph unicode="`" glyph-name="grave" horiz-adv-x="487" d="M340 1081L150 1264Q94 1320 70 1354T45 1419Q45 1457 73 1483T141 1509Q186 1509 212 1472T270 1341L367 1081H340Z" />
<glyph unicode="a" glyph-name="a" horiz-adv-x="1005" d="M344 -12Q216 -12 149 54T82 215Q82 278 112 333T205 422Q271 459 369 483T547 520T643 541V688Q643 806 605 860T477 915Q366 915 307 856Q362 804 362 745Q362 691 330 658T240 625Q187 625 154 659T121
745Q121 837 225 895T502 954Q679 954 767 882T856 653V176Q856 97 889 73T1012 82L1020 61Q962 25 918 9T823 -8Q739 -8 701 28T653 150H645Q506 -12 344 -12ZM463 82Q514 82 561 115T643 197V502Q507 475 436 443T338 367T311 250Q311 173 349 128T463 82Z" />
<glyph unicode="b" glyph-name="b" horiz-adv-x="1107" d="M131 -31L137 156V1327Q137 1365 127 1385T80 1417T-27 1432V1456L352 1468V821Q489 961 662 961Q836 961 937 832T1038 502Q1038 359 986 242T832 55T600 -16Q415 -16 272 80L162 -31H131ZM569 23Q688
23 746 148T805 492Q805 664 739 771T555 879Q496 879 449 856T352 780V184Q383 106 441 65T569 23Z" />
<glyph unicode="c" glyph-name="c" horiz-adv-x="950" d="M514 -16Q312 -16 189 115T66 455Q66 678 207 819T559 961Q723 961 814 891T905 739Q905 681 874 645T788 608Q728 608 693 642T657 729Q657 770 677 803T723 850Q664 924 565 924Q448 924 374 808T299
492Q299 371 332 277T437 125T614 66Q700 66 767 105T901 227L924 211Q876 141 824 94T692 16T514 -16Z" />
<glyph unicode="d" glyph-name="d" horiz-adv-x="1116" d="M471 -16Q285 -16 176 118T66 459Q66 599 124 713T291 894T537 961Q650 961 745 911V1327Q745 1365 735 1385T688 1417T582 1432V1456L961 1468V104Q961 63 993 43T1108 20V0L750 -8V104Q632 -16 471
-16ZM571 70Q675 70 745 147V817Q671 922 549 922Q433 922 366 799T299 469Q299 294 370 182T571 70Z" />
<glyph unicode="e" glyph-name="e" horiz-adv-x="991" d="M528 -16Q322 -16 194 116T66 461Q66 568 103 662T203 821T350 923T528 961Q728 961 834 838T928 524H299V477V473Q299 289 382 178T621 66Q712 66 776 108T909 240L932 223Q863 111 767 48T528 -16ZM514
922Q421 922 366 830T301 561H698Q732 922 514 922Z" />
<glyph unicode="f" glyph-name="f" horiz-adv-x="673" d="M63 0V25Q151 27 180 42T209 102V870H33V897L209 942V1020Q209 1265 324 1378Q426 1481 586 1481Q713 1481 781 1434T850 1315Q850 1259 819 1226T733 1192Q680 1192 644 1224T608 1323Q608 1342 618 1370T641
1415Q610 1444 565 1444Q516 1444 481 1409Q452 1380 438 1319T424 1143V936H684V872H424V102Q424 57 463 43T618 25V0H63Z" />
<glyph unicode="g" glyph-name="g" horiz-adv-x="962" d="M508 -377Q641 -377 731 -316T821 -156Q821 -90 760 -55T553 -20H344Q199 -66 199 -178Q199 -269 275 -323T508 -377ZM489 358Q574 358 611 425T649 639Q649 770 604 844T471 918Q385 918 348 851T311
639Q311 358 489 358ZM481 954Q578 954 668 915Q751 1083 874 1083Q930 1083 961 1054T993 979Q993 942 968 917T905 891Q869 891 841 920T813 995Q780 989 750 963T700 899Q868 812 868 643Q868 547 813 473T671 362T481 324Q415 324 346 340Q227 300 227 242Q227
207 269 188T424 168H584Q772 168 865 108T958 -82Q958 -147 925 -205T830 -310T671 -384T455 -412Q267 -412 153 -354T39 -205Q39 -134 104 -82T285 -12V-8Q191 17 149 61T106 170Q106 222 155 272T295 356Q202 393 147 463T92 635Q92 730 148 804T292 916T481
954Z" />
<glyph unicode="h" glyph-name="h" horiz-adv-x="1142" d="M20 0V25Q109 27 137 41T166 102V1327Q166 1365 155 1385T108 1417T2 1432V1456L381 1468V727Q451 837 541 895T733 954Q855 954 920 881T985 668V102Q985 56 1013 42T1133 25V0H647V25Q720 27 745 42T770
102V625Q770 739 731 794T602 850Q475 850 381 678V102Q381 57 406 42T504 25V0H20Z" />
<glyph unicode="i" glyph-name="i" horiz-adv-x="598" d="M299 1124Q239 1124 203 1160T166 1257Q166 1320 202 1359T299 1399Q360 1399 397 1363T434 1264T397 1163T299 1124ZM53 0V25Q143 27 173 42T203 102V807Q203 856 170 882T53 909V934L418 948V102Q418
56 445 41T567 25V0H53Z" />
<glyph unicode="j" glyph-name="j" horiz-adv-x="579" d="M299 1124Q239 1124 203 1160T166 1257Q166 1320 202 1359T299 1399Q360 1399 397 1363T434 1264T397 1163T299 1124ZM78 -412Q-37 -412 -104 -369T-172 -256Q-172 -202 -137 -168T-51 -133Q2 -133 35
-166T68 -252Q68 -316 20 -352Q46 -375 90 -375Q149 -375 176 -323T203 -164V807Q203 858 168 883T37 909V934L418 948V20Q418 -118 397 -194T317 -328Q236 -412 78 -412Z" />
<glyph unicode="k" glyph-name="k" horiz-adv-x="1081" d="M381 381V102Q381 58 404 43T489 25V0H20V25Q109 27 137 41T166 102V1327Q166 1365 155 1385T108 1417T2 1432V1456L381 1468V432L682 741Q750 810 734 855T612 920V944H1047V920Q959 901 891 859T723
721L612 610L920 176Q986 82 1019 57T1122 25V0H637V25Q714 32 727 61T700 143L473 473L381 381Z" />
<glyph unicode="l" glyph-name="l" horiz-adv-x="595" d="M47 0V25Q137 27 166 41T195 102V1327Q195 1365 184 1385T137 1417T31 1432V1456L410 1468V102Q410 56 438 41T555 25V0H47Z" />
<glyph unicode="m" glyph-name="m" horiz-adv-x="1730" d="M655 0V25Q727 27 750 42T774 102V625Q774 738 736 794T612 850Q496 850 403 678V102Q403 56 423 41T512 25V0H43V25Q131 27 159 41T188 102V807Q188 857 157 882T43 909V934L399 948V727Q538 954 741
954Q844 954 907 900T983 741Q1050 840 1140 897T1327 954Q1446 954 1510 881T1575 668V102Q1575 56 1603 42T1720 25V0H1249V25Q1319 26 1339 41T1360 102V625Q1360 739 1323 794T1200 850Q1148 850 1091 809T989 696V684V102Q989 57 1015 42T1120 25V0H655Z"
/>
<glyph unicode="n" glyph-name="n" horiz-adv-x="1161" d="M43 0V25Q131 27 159 41T188 102V807Q188 857 157 882T43 909V934L399 948V727Q469 837 560 895T754 954Q876 954 941 881T1006 668V102Q1006 56 1034 41T1151 25V0H668V25Q740 27 765 42T791 102V629Q791
743 753 796T625 850Q561 850 504 804T403 678V102Q403 57 428 42T524 25V0H43Z" />
<glyph unicode="o" glyph-name="o" horiz-adv-x="1087" d="M545 -16Q336 -16 201 118T66 469Q66 683 205 822T545 961Q751 961 886 827T1022 477Q1022 334 957 221T784 46T545 -16ZM553 23Q669 23 725 130T782 473Q782 922 535 922Q417 922 360 816T303 473Q303
23 553 23Z" />
<glyph unicode="p" glyph-name="p" horiz-adv-x="1118" d="M10 -391V-367Q100 -365 128 -351T156 -289V807Q156 857 125 882T10 909V934L367 948V813Q515 961 678 961Q852 961 951 829T1051 485Q1051 344 999 231T847 51T616 -16Q481 -16 371 43V-289Q371 -336
409 -350T565 -367V-391H10ZM582 23Q699 23 759 137T819 473Q819 586 793 676T710 821T575 877Q469 877 371 774V178Q431 23 582 23Z" />
<glyph unicode="q" glyph-name="q" horiz-adv-x="1112" d="M565 -391V-369Q675 -364 714 -349T754 -295V111Q613 -16 455 -16Q276 -16 172 114T68 442Q68 582 122 699T282 889T522 961Q683 961 836 860L944 969H975L969 782V-295Q969 -334 999 -350T1116 -369V-391H565ZM559
70Q614 70 658 90T754 154V754Q722 835 670 878T553 922Q429 922 365 794T301 453Q301 286 369 178T559 70Z" />
<glyph unicode="r" glyph-name="r" horiz-adv-x="847" d="M43 0V25Q131 27 159 41T188 102V807Q188 857 157 882T43 909V934L399 948V741Q454 842 526 899T676 956Q756 956 798 914T840 807Q840 749 805 712T715 674Q658 674 622 709T586 801Q586 832 598 864Q541
857 496 816T403 694V102Q403 57 438 43T582 25V0H43Z" />
<glyph unicode="s" glyph-name="s" horiz-adv-x="854" d="M78 -16V324H106Q207 150 280 87T463 23Q545 23 592 69T639 180Q639 252 584 296T379 383Q217 429 150 489T82 659Q82 793 176 877T428 961Q552 961 659 897L711 961H733V655H705Q656 735 624 779T556
859T484 908T401 922Q330 922 283 878T236 764Q236 701 293 662T475 590Q638 545 711 480T784 299Q784 164 692 74T438 -16Q378 -16 295 5T168 57L100 -16H78Z" />
<glyph unicode="t" glyph-name="t" horiz-adv-x="718" d="M442 -20Q197 -20 197 252V870H6V897L197 942V1202L412 1280V936H702V872H412V233Q412 142 439 103T530 63Q627 63 702 201L727 184Q627 -20 442 -20Z" />
<glyph unicode="u" glyph-name="u" horiz-adv-x="1142" d="M428 -14Q305 -14 237 58T168 272V815Q168 865 136 889T18 915V940L383 948V317Q383 203 421 147T549 90Q678 90 764 258V815Q764 864 732 888T616 913V938L979 948V100Q979 59 1010 43T1126 23V0H768V209Q635
-14 428 -14Z" />
<glyph unicode="v" glyph-name="v" horiz-adv-x="1003" d="M465 -14L150 766Q116 847 80 878T-29 920V944H477V920Q412 913 384 896T356 848Q356 826 369 791L588 215H596L782 686Q817 774 817 813Q817 860 782 884T670 920V944H1042V920Q926 902 860 743L543 -14H465Z" />
<glyph unicode="w" glyph-name="w" horiz-adv-x="1521" d="M770 670L735 766Q706 846 672 878T571 920V944H1061V920Q993 913 964 894T934 836Q934 820 944 788L1137 223H1145L1294 680Q1327 776 1327 813Q1327 861 1295 885T1190 920V944H1563V920Q1500 911 1449
868T1370 743L1102 -14H1018L791 610L535 -14H455L152 766Q121 845 84 877T-27 920V944H475V920Q410 913 380 894T350 838Q350 820 360 788L573 219H582L770 670Z" />
<glyph unicode="x" glyph-name="x" horiz-adv-x="1042" d="M575 561L692 713Q739 773 749 815T734 882T647 920V944H1042V920Q955 904 897 865T760 727L600 528L844 193Q913 98 951 68T1055 25V0H565V25Q659 37 671 66T635 162L469 406L328 225Q257 133 273 87T393
25V0H-6V25Q69 39 124 77T258 211L444 438L215 754Q146 851 107 880T-6 920V944H483V920Q396 907 387 877T424 784L575 561Z" />
<glyph unicode="y" glyph-name="y" horiz-adv-x="1007" d="M508 -23L150 766Q111 848 75 879T-35 920V944H473V920Q385 912 363 880T369 791L610 219L793 686Q839 809 815 856T680 920V944H1051V920Q937 903 868 743L532 -76Q455 -264 379 -338T209 -412Q137 -412
93 -370T49 -266Q49 -215 80 -178T166 -141Q214 -141 247 -177T281 -264Q281 -327 236 -367Q304 -358 365 -291T496 -51L508 -23Z" />
<glyph unicode="z" glyph-name="z" horiz-adv-x="962" d="M63 0L59 27L668 903H459Q372 903 303 841T135 610L104 614L133 944H907L911 915L305 41H537Q627 41 697 107T870 348L899 344L870 0H63Z" />
<glyph unicode="{" glyph-name="braceleft" horiz-adv-x="835" d="M868 -326Q629 -326 495 -224T360 68Q360 123 378 224T397 356Q397 439 368 491T263 575T53 616V649Q187 658 263 688T368 769T397 901Q397 932 379 1029T360 1180Q360 1366 492 1461T868 1565V1538Q794
1532 742 1513T659 1466T611 1395T589 1306T584 1198Q584 1172 589 1093T594 965Q594 858 558 795T431 694T176 637V627Q411 606 502 529T594 293Q594 244 589 160T584 49Q584 -15 589 -59T611 -149T659 -223T741 -272T868 -297V-326Z" />
<glyph unicode="|" glyph-name="bar" horiz-adv-x="626" d="M287 -440V1528H340V-440H287Z" />
<glyph unicode="}" glyph-name="braceright" horiz-adv-x="835" d="M-31 -326V-297Q43 -292 95 -272T178 -224T226 -150T248 -60T254 49Q254 75 249 159T244 293Q244 452 335 529T662 627V637Q496 656 406 694T280 795T244 965Q244 1014 249 1093T254 1198Q254
1262 249 1306T226 1395T179 1466T96 1512T-31 1538V1565Q213 1557 345 1462T477 1180Q477 1126 459 1029T440 901Q440 819 469 769T573 689T782 649V616Q650 608 574 576T469 491T440 356Q440 326 458 225T477 68Q477 -121 343 -223T-31 -326Z" />
<glyph unicode="~" glyph-name="asciitilde" horiz-adv-x="813" d="M92 565Q111 704 157 766T291 829Q332 829 391 803T506 750T592 723Q657 723 688 846H727Q708 709 661 646T528 582Q487 582 428 608T313 661T227 688Q195 688 172 661T131 565H92Z" />
</font>
</defs>
</svg>
