<?xml version="1.0" standalone="no"?> <!DOCTYPE svg PUBLIC "-//W3C//DTD SVG 1.0//EN" "http://www.w3.org/TR/2001/REC-SVG-20010904/DTD/svg10.dtd" > <svg xmlns="http://www.w3.org/2000/svg" width="100%" height="100%">
<defs >
<font id="didothtfm96medium" horiz-adv-x="790" ><font-face
    font-family="Didot HTF-M96-"
    units-per-em="2048"
    panose-1="0 0 0 0 0 0 0 0 0 0"
    ascent="1985"
    descent="-762"
    alphabetic="0" />
<missing-glyph horiz-adv-x="1024" />
<glyph unicode=" " glyph-name="space" horiz-adv-x="358" />
<glyph unicode="!" glyph-name="exclam" horiz-adv-x="432" d="M334 1327Q334 1257 306 1084T250 702T221 338Q221 332 216 334Q213 335 213 338Q213 493 185 701T127 1083T98 1327Q98 1487 217 1487Q334 1487 334 1327ZM319 82Q319 37 289 5T217 -27Q174 -27
144 5T113 82T143 158T217 190T289 158T319 82Z" />
<glyph unicode="&quot;" glyph-name="quotedbl" horiz-adv-x="677" d="M580 1376Q580 1318 544 1185T498 997Q498 975 496 975H492V997Q483 1051 446 1184T408 1376Q408 1417 429 1452T494 1487Q539 1487 559 1452T580 1376ZM272 1376Q272 1318 236 1184T190 997Q190
975 188 975H184V997Q175 1053 138 1186T100 1376Q100 1416 121 1451T186 1487Q218 1487 238 1468T265 1425T272 1376Z" />
<glyph unicode="#" glyph-name="numbersign" horiz-adv-x="987" d="M956 606H711L614 264H858Q861 264 861 260T858 256H612L512 -88Q510 -91 504 -86L602 256H317L219 -88Q218 -91 214 -90T209 -86L309 256H66Q62 256 62 260T66 264H311L410 606H166Q163 606
163 610T166 614H412L510 958Q512 963 517 960Q519 959 518 956L420 614H705L803 958Q805 963 810 960Q812 959 811 956L713 614H956Q960 614 960 610T956 606ZM702 606H418L322 264H604L702 606Z" />
<glyph unicode="$" glyph-name="dollar" horiz-adv-x="1157" d="M1059 432Q1059 364 1033 293T959 157T834 43T662 -25V-207Q662 -210 657 -210T651 -207V-27Q611 -35 555 -35Q510 -35 489 -33V-207Q489 -210 484 -210T479 -207V-31Q313 -11 204 77T94 266Q94
330 135 371T227 412T313 375T350 289Q350 262 342 243T323 214T300 195T280 173T272 139Q272 -2 479 -25V635Q400 664 343 696T236 777T161 894T135 1051Q135 1205 234 1325T479 1479V1659Q479 1662 484 1662T489 1659V1481Q530 1487 567 1487Q612 1487 651 1481V1659Q651
1662 656 1662T662 1659V1481Q814 1457 903 1369T993 1178Q993 1113 953 1073T862 1032T776 1069T739 1155Q739 1189 752 1211T780 1242T808 1268T821 1309Q821 1366 784 1411T662 1473V862Q764 825 832 789T954 703T1034 587T1059 432ZM651 864V1475Q603 1479
569 1479Q526 1479 489 1473V932Q544 902 651 864ZM479 936V1470Q377 1446 314 1377T250 1221T306 1066T479 936ZM930 250Q930 364 870 433T662 565V-16Q786 8 858 84T930 250ZM651 -18V571Q630 579 604 589T544 612T489 633V-25Q508 -27 553 -27Q612 -27 651 -18Z"
/>
<glyph unicode="%" glyph-name="percent" horiz-adv-x="1480" d="M793 1202Q793 1123 757 1040T658 889T506 777T317 733Q209 733 141 802T72 991Q72 1071 108 1154T206 1305T358 1416T547 1460Q655 1460 724 1391T793 1202ZM1208 1487L281 -49Q279 -54 273 -47Q271
-45 272 -43L1200 1491Q1202 1495 1208 1487ZM1409 451Q1409 372 1373 289T1275 138T1123 26T934 -18Q824 -18 755 51T686 240Q686 319 723 402T822 554T974 665T1163 709Q1272 709 1340 640T1409 451ZM659 1313Q659 1388 634 1420T547 1452Q463 1452 412 1415Q324
1354 265 1175T205 881Q205 806 230 774T317 741Q396 741 453 778Q541 839 600 1018T659 1313ZM1274 561Q1274 636 1250 668T1163 700Q1080 700 1028 664Q967 622 917 514T844 301T821 129Q821 54 846 22T934 -10Q1014 -10 1069 27Q1157 88 1215 266T1274 561Z"
/>
<glyph unicode="&amp;" glyph-name="ampersand" horiz-adv-x="1359" d="M1389 772H1309Q1230 772 1193 738T1149 618Q1129 392 1030 225Q1053 187 1069 164Q1105 108 1157 69T1251 29Q1269 29 1284 35Q1320 49 1346 78T1384 139Q1386 141 1389 139T1391 133Q1359
57 1273 12T1094 -33Q977 -33 872 66Q715 -35 528 -35Q331 -35 203 83T74 387Q74 542 158 668T408 903Q373 1013 373 1102Q373 1276 454 1381T659 1487Q842 1487 842 1311Q842 1238 783 1165T614 1028Q707 722 1024 236Q1124 401 1141 618Q1147 701 1110 736T991
772H918Q914 772 914 776T918 780H1389Q1395 780 1393 775Q1392 772 1389 772ZM836 1311Q836 1384 799 1427T700 1470Q646 1470 611 1419T575 1272Q575 1160 610 1038Q711 1095 773 1167T836 1311ZM868 72Q803 137 748 231Q485 664 410 895Q345 843 305 753T264
563Q264 457 293 362T376 193T516 76T705 33Q785 33 868 72Z" />
<glyph unicode="&apos;" glyph-name="quotesingle" horiz-adv-x="370" d="M272 1376Q272 1318 236 1184T190 997Q190 975 188 975H184V997Q175 1053 138 1186T100 1376Q100 1416 121 1451T186 1487Q218 1487 238 1468T265 1425T272 1376Z" />
<glyph unicode="(" glyph-name="parenleft" horiz-adv-x="540" d="M657 -496Q659 -498 654 -500Q651 -501 649 -500Q409 -336 274 -75T139 506Q139 825 274 1086T649 1511Q654 1514 657 1505Q589 1462 542 1419T457 1316T395 1186T356 1016T334 794T328 506Q328
306 337 168T368 -77T429 -259T522 -389T657 -496Z" />
<glyph unicode=")" glyph-name="parenright" horiz-adv-x="540" d="M406 506Q406 186 271 -75T-104 -500Q-111 -503 -113 -496Q-11 -431 49 -361T148 -175T202 99T217 506Q217 705 207 843T176 1088T115 1269T22 1398T-113 1505Q-116 1508 -109 1511Q-106 1512
-104 1511Q136 1347 271 1086T406 506Z" />
<glyph unicode="*" glyph-name="asterisk" horiz-adv-x="653" d="M551 1139Q551 1121 537 1103T504 1085Q484 1085 469 1098T443 1129T406 1174T342 1223L332 1229V1217Q332 1166 343 1132T365 1075T377 1032Q377 1013 363 999T328 985T294 999T279 1032Q279 1052
290 1074T313 1131T324 1217V1229L311 1223Q275 1201 249 1174T212 1129T186 1098T152 1085T118 1103T102 1139Q102 1156 115 1167T145 1182Q154 1184 190 1190T254 1206T319 1237Q283 1257 254 1267T190 1282T145 1290Q128 1293 115 1304T102 1333Q102 1351 117
1370T152 1389T186 1376T212 1345T249 1299T311 1251L324 1243V1257Q324 1307 313 1341T291 1397T279 1440Q279 1459 293 1473T328 1487T362 1473T377 1440Q377 1419 366 1397T343 1341T332 1257V1243L342 1251Q379 1272 405 1299T443 1344T469 1376T504 1389Q522
1389 536 1371T551 1333Q551 1316 539 1305T510 1290Q500 1287 466 1282T402 1267T336 1237Q372 1216 401 1206T465 1190T510 1182Q527 1179 539 1168T551 1139Z" />
<glyph unicode="+" glyph-name="plus" horiz-adv-x="860" d="M758 432H434V109Q434 105 430 105T426 109V432H102Q99 432 99 436T102 440H426V764Q426 767 430 767T434 764V440H758Q761 440 761 436T758 432Z" />
<glyph unicode="," glyph-name="comma" horiz-adv-x="348" d="M285 55Q285 2 254 -70T167 -206T53 -287Q52 -288 51 -281Q91 -267 113 -246Q186 -189 186 -121Q186 -58 119 -6Q72 24 72 82Q72 126 102 158T176 190Q228 190 256 154T285 55Z" />
<glyph unicode="-" glyph-name="hyphen" horiz-adv-x="659" d="M602 541Q575 499 569 428H55Q51 428 55 436Q84 475 90 549H602Q610 549 602 541Z" />
<glyph unicode="." glyph-name="period" horiz-adv-x="348" d="M276 82Q276 37 246 5T174 -27Q133 -27 103 5T72 82T102 158T174 190Q217 190 246 158T276 82Z" />
<glyph unicode="/" glyph-name="slash" horiz-adv-x="733" d="M793 1544L137 -47Q136 -50 132 -48T127 -43L784 1548Q786 1552 793 1544Z" />
<glyph unicode="0" glyph-name="zero" horiz-adv-x="1075" d="M983 436Q983 312 923 208T761 43T537 -18Q353 -18 223 115T92 436Q92 623 223 756T537 889Q721 889 852 756T983 436ZM788 436Q788 599 766 694T692 834Q638 881 537 881Q434 881 383 834Q331 790
309 695T287 436Q287 254 308 168T383 37Q433 -10 537 -10Q640 -10 692 37Q745 82 766 168T788 436Z" />
<glyph unicode="1" glyph-name="one" horiz-adv-x="653" d="M563 0H90Q87 0 87 4T90 8H221Q236 8 236 14V856Q236 864 221 864H90Q87 864 87 868T90 872H563Q569 872 567 867Q566 864 563 864H432Q418 864 418 856V14Q418 8 432 8H563Q569 8 567 3Q566 0 563 0Z" />
<glyph unicode="2" glyph-name="two" horiz-adv-x="917" d="M846 6Q846 0 842 0H37Q33 0 31 5T35 14Q245 98 364 186T531 377T580 623Q580 764 530 823T379 883Q338 883 312 859T285 784Q285 768 293 746T301 707Q301 677 277 655T209 633Q168 633 147 660T125
725Q125 786 196 838T379 891Q488 891 572 863T710 768T764 604Q764 493 659 392T303 139Q294 134 309 133H657Q753 133 795 174T838 309Q838 312 842 312T846 309V6Z" />
<glyph unicode="3" glyph-name="three" horiz-adv-x="827" d="M786 -145Q786 -249 742 -335T629 -475T477 -558T315 -588Q180 -588 100 -534T20 -403Q20 -365 41 -338T106 -311Q151 -311 174 -332T197 -385Q197 -402 189 -424T180 -463Q180 -528 216 -554T315
-580Q366 -580 405 -569T481 -530T540 -456T578 -337T592 -166Q592 -43 578 37T532 161T462 220T365 236Q344 236 319 226T276 206T209 166Q205 163 204 166T205 172Q378 270 442 363T506 625Q506 767 460 825T315 883Q274 883 249 859T223 784Q223 768 230 746T238
707Q238 676 215 655T147 633Q104 633 84 660T63 727Q63 787 133 839T315 891Q396 891 464 875T585 825T669 735T700 604Q700 543 667 486T576 384T458 304T328 242Q365 250 408 250Q497 250 570 217T689 128T761 2T786 -145Z" />
<glyph unicode="4" glyph-name="four" horiz-adv-x="925" d="M940 0H721V-569H537V0H41Q38 0 38 3T39 10Q103 97 174 248L541 975Q596 954 687 992T823 1085Q826 1088 828 1087T831 1083L49 8H537V262Q595 269 644 329T713 446Q716 453 721 446V8H940Q946 8 944
3Q943 0 940 0Z" />
<glyph unicode="5" glyph-name="five" horiz-adv-x="829" d="M770 -106Q770 -220 731 -314T628 -466T487 -556T330 -588Q195 -588 114 -534T33 -403Q33 -365 54 -338T119 -311Q163 -311 186 -332T209 -385Q209 -402 201 -424T193 -463Q193 -528 229 -554T330 -580T437
-560T514 -489T562 -350T578 -127Q578 53 558 148T496 279T379 315Q314 315 259 276T184 164Q180 148 180 136T182 111T184 90Q184 76 174 76T164 92Q164 97 167 122T170 156V840Q170 847 169 852T168 858Q168 861 170 862T174 860Q226 811 348 811Q401 811 445
828T512 866T563 904T618 922Q700 922 700 846Q700 784 633 741T471 698Q382 698 293 742T178 844V176Q233 330 422 330Q511 330 579 295T688 199T749 60T770 -106Z" />
<glyph unicode="6" glyph-name="six" horiz-adv-x="1052" d="M961 399Q961 229 839 106T545 -18Q354 -18 239 138T123 602Q123 762 158 915T256 1189T412 1384T616 1458Q728 1458 794 1407T860 1294Q860 1256 839 1229T776 1202Q730 1202 707 1223T684 1276Q684
1292 692 1314T700 1354Q700 1450 616 1450Q543 1450 486 1386T393 1211T337 968T313 684Q411 819 545 819Q716 819 838 695T961 399ZM768 399Q768 692 682 770Q633 811 545 811Q497 811 452 791T377 743T331 687T313 641V391Q313 233 336 154T408 31Q455 -12 545
-12Q634 -12 682 31Q729 71 748 153T768 399Z" />
<glyph unicode="7" glyph-name="seven" horiz-adv-x="849" d="M821 864Q763 752 692 547L311 -569H129L750 721H295Q198 721 156 681T113 549Q113 546 109 546T104 549V866Q104 872 111 872H803H819Q825 872 821 864Z" />
<glyph unicode="8" glyph-name="eight" horiz-adv-x="1062" d="M961 385Q961 212 838 97T530 -18Q450 -18 377 6T244 75T149 194T113 360Q113 491 191 596T406 758Q308 836 253 922T197 1122Q197 1181 217 1239T277 1347T382 1429T530 1460Q623 1460 704 1428T840
1324T895 1153Q895 1046 824 961T637 827Q711 775 764 730T865 629T937 513T961 385ZM760 1147Q760 1452 530 1452Q427 1452 373 1395T319 1247Q319 1191 338 1139T383 1048T456 967T538 897T631 831Q662 858 671 866T703 905T734 962T751 1037T760 1147ZM825 274Q825
329 806 379T759 467T685 546T600 615T503 684T410 754Q378 724 365 710T327 662T293 593T273 503T264 375Q264 265 283 188T340 68T423 8T530 -10Q568 -10 604 -3T682 23T754 73T805 155T825 274Z" />
<glyph unicode="9" glyph-name="nine" horiz-adv-x="1036" d="M954 264Q954 103 919 -49T819 -321T655 -515T436 -588T246 -532T174 -414Q174 -375 194 -349T258 -322Q304 -322 327 -342T350 -393Q350 -410 341 -433T332 -473Q332 -523 360 -551T436 -580Q722
-580 745 131Q665 18 518 18Q339 18 221 145T102 455Q102 573 155 672T304 831T518 891Q613 891 690 855T828 746T921 549T954 264ZM764 459Q764 628 742 711T668 838Q614 883 518 883Q431 883 377 838Q329 797 313 716T297 455Q297 289 313 200T377 70Q433 25
518 25Q606 25 671 71T750 172Q755 184 759 285T764 459Z" />
<glyph unicode=":" glyph-name="colon" horiz-adv-x="348" d="M276 680Q276 634 247 603T174 571Q132 571 102 602T72 680Q72 724 102 756T174 788Q217 788 246 756T276 680ZM276 82Q276 37 246 5T174 -27Q133 -27 103 5T72 82T102 158T174 190Q217 190 246 158T276 82Z" />
<glyph unicode=";" glyph-name="semicolon" horiz-adv-x="348" d="M276 680Q276 634 247 603T174 571Q132 571 102 602T72 680Q72 724 102 756T174 788Q217 788 246 756T276 680ZM285 55Q285 2 254 -70T167 -206T53 -287Q52 -288 51 -281Q91 -267 113 -246Q186
-189 186 -121Q186 -58 119 -6Q72 24 72 82Q72 126 102 158T176 190Q228 190 256 154T285 55Z" />
<glyph unicode="&lt;" glyph-name="less" horiz-adv-x="686" d="M600 156Q604 154 596 147L102 432Q98 436 102 440L596 725Q600 726 600 719L113 436L600 156Z" />
<glyph unicode="=" glyph-name="equal" horiz-adv-x="776" d="M674 555H104Q101 555 101 558T104 561H674Q678 561 678 558T674 555ZM674 311H104Q101 311 101 315T104 319H674Q680 319 678 314Q677 311 674 311Z" />
<glyph unicode="&gt;" glyph-name="greater" horiz-adv-x="686" d="M584 432L90 147Q87 145 85 151Q83 155 86 156L573 436L86 719Q83 721 90 725L584 440Q588 436 584 432Z" />
<glyph unicode="?" glyph-name="question" horiz-adv-x="854" d="M780 1061Q780 879 674 765T418 651Q377 651 335 665T268 711V338Q268 332 263 334Q260 335 260 338V719Q260 721 259 723T258 727Q258 730 264 731Q284 695 329 677T418 659Q448 659 479 669T528
696Q556 722 565 788T575 1061Q575 1216 554 1301T483 1432Q435 1479 338 1479Q266 1479 241 1452T215 1356Q215 1318 229 1288T244 1227Q244 1189 216 1163T139 1137Q90 1137 62 1164T33 1247Q33 1341 118 1414T338 1487Q531 1487 655 1368T780 1061ZM367 127T367
82T337 5T264 -27T191 5T160 82T190 158T264 190T337 159Z" />
<glyph unicode="@" glyph-name="at" horiz-adv-x="1689" d="M1554 825Q1554 732 1525 654T1447 522T1337 432T1212 377T1087 360Q969 360 928 420T909 571Q871 466 799 414T657 362Q581 362 531 401T460 496T440 623Q440 729 501 837T671 1018T901 1092Q951 1092
989 1068T1034 999L1059 1073H1202L1100 748Q1067 643 1052 579T1037 468T1058 401T1122 381Q1202 381 1278 412T1414 499T1510 640T1546 825Q1546 978 1493 1103T1347 1309T1131 1435T864 1479Q711 1479 572 1420T331 1260T171 1020T111 727Q111 573 170 434T331
193T571 33T864 -27Q1131 -27 1339 141Q1345 145 1348 142Q1350 140 1346 137Q1136 -35 864 -35Q709 -35 568 25T325 187T163 430T102 727T162 1022T325 1265T568 1427T864 1487Q1008 1487 1133 1443T1352 1315T1500 1106T1554 825ZM1026 971Q1035 1018 998 1051T901
1085Q835 1085 768 1032Q687 968 626 792T565 498Q565 377 668 377Q750 377 814 440T899 571L1026 971Z" />
<glyph unicode="A" glyph-name="A" horiz-adv-x="1376" d="M1436 0H766Q763 0 763 4T766 8H963Q973 8 973 16L797 504H319L168 94Q157 65 152 49T145 24T145 11T152 8H340Q343 8 343 4T340 0H-47Q-50 0 -50 4T-47 8H109Q123 8 130 21T160 94L668 1481Q670 1486
673 1486T678 1481L1245 16Q1249 8 1262 8H1436Q1439 8 1439 4T1436 0ZM793 512L559 1159L322 512H793Z" />
<glyph unicode="B" glyph-name="B" horiz-adv-x="1351" d="M1262 385Q1262 310 1231 242T1141 120T987 33T772 0H80Q74 0 76 5Q77 8 80 8H262Q276 8 276 16V1436Q276 1444 262 1444H80Q74 1444 76 1449Q77 1452 80 1452H670Q802 1452 909 1417T1084 1303T1153
1116Q1153 1021 1093 942T940 818T745 774Q970 774 1116 669T1262 385ZM922 1108Q922 1291 858 1367T637 1444H543Q528 1444 528 1436V778H707Q825 778 873 850T922 1108ZM1014 373Q1014 494 994 573T929 695T827 755T686 772H528V16Q528 8 543 8H715Q867 8 940
92T1014 373Z" />
<glyph unicode="C" glyph-name="C" horiz-adv-x="1357" d="M1257 -31Q1257 -32 1254 -32T1249 -31Q1245 -9 1220 11T1155 31Q1110 31 983 -2T795 -35Q649 -35 520 27T299 192T155 435T102 725Q102 928 188 1102T433 1381T784 1487Q836 1487 947 1460T1106 1432Q1148
1432 1177 1447T1210 1481Q1210 1484 1214 1484T1219 1481V1038Q1219 1035 1215 1035T1210 1038Q1210 1138 1148 1241T985 1411T784 1479Q620 1479 535 1399Q453 1323 414 1160T375 725Q375 455 414 291T535 51Q623 -29 795 -29Q920 -29 1025 40T1189 225T1249
473Q1249 476 1253 476T1257 473V-31Z" />
<glyph unicode="D" glyph-name="D" horiz-adv-x="1531" d="M1430 725Q1430 529 1339 362T1091 98T750 0H80Q77 0 77 4T80 8H262Q276 8 276 16V1436Q276 1444 262 1444H80Q77 1444 77 1448T80 1452H750Q934 1452 1090 1355T1338 1090T1430 725ZM1157 725Q1157 984
1118 1140T997 1368Q910 1444 750 1444H543Q528 1444 528 1436V16Q528 8 543 8H750Q910 8 997 84Q1082 159 1119 299T1157 725Z" />
<glyph unicode="E" glyph-name="E" horiz-adv-x="1327" d="M1278 6Q1278 0 1272 0H78Q75 0 75 4T78 8H262Q276 8 276 16V1436Q276 1444 262 1444H78Q75 1444 75 1448T78 1452H1161Q1167 1452 1167 1446V1053Q1167 1047 1162 1049Q1159 1050 1159 1053Q1159 1126
1136 1194T1067 1319T947 1410T778 1444H543Q530 1444 530 1436V750H610Q734 750 810 823T887 1006Q887 1009 891 1009T895 1006V485Q895 482 891 482T887 485Q887 593 810 667T610 741H530V16Q530 8 543 8H784Q908 8 1004 45T1157 145T1241 283T1270 440Q1270
443 1274 443T1278 440V6Z" />
<glyph unicode="F" glyph-name="F" horiz-adv-x="1275" d="M1169 1053Q1169 1047 1164 1049Q1161 1050 1161 1053Q1161 1126 1138 1194T1069 1319T948 1410T778 1444H543Q528 1444 528 1436V750H592Q715 750 790 823T866 1006Q866 1009 870 1009T874 1006V485Q874
482 870 482T866 485Q866 593 791 667T592 741H528V16Q528 8 543 8H727Q730 8 730 4T727 0H80Q77 0 77 4T80 8H264Q276 8 276 16V1436Q276 1444 264 1444H80Q77 1444 77 1448T80 1452H1163Q1169 1452 1169 1446V1053Z" />
<glyph unicode="G" glyph-name="G" horiz-adv-x="1413" d="M1481 549H1298Q1284 549 1284 543V-8Q1284 -12 1277 -11Q1272 -9 1272 -6Q1268 16 1238 45T1167 74Q1136 74 1095 57T1014 20T905 -18T754 -35Q607 -35 483 28T276 198T148 440T102 725Q102 928 188
1102T432 1381T782 1487Q831 1487 929 1460T1075 1432Q1118 1432 1147 1447T1180 1481Q1182 1484 1185 1484T1188 1481V1038Q1188 1035 1184 1035T1180 1038Q1180 1139 1127 1241T979 1411T782 1479Q623 1479 535 1399Q453 1323 414 1160T375 725Q375 417 400 270T504
51Q592 -29 754 -29Q892 -29 961 24T1030 168V543Q1030 549 1018 549H834Q830 549 830 553T834 557H1481Q1487 557 1485 552Q1484 549 1481 549Z" />
<glyph unicode="H" glyph-name="H" horiz-adv-x="1630" d="M1550 0H924Q921 0 921 4T924 8H1087Q1100 8 1100 16V752H528V16Q528 8 543 8H707Q710 8 710 4T707 0H80Q77 0 77 4T80 8H262Q276 8 276 16V1436Q276 1444 262 1444H80Q77 1444 77 1448T80 1452H707Q710
1452 710 1448T707 1444H543Q528 1444 528 1436V760H1100V1436Q1100 1444 1087 1444H924Q921 1444 921 1448T924 1452H1550Q1553 1452 1553 1448T1550 1444H1366Q1354 1444 1354 1436V16Q1354 8 1366 8H1550Q1553 8 1553 4T1550 0Z" />
<glyph unicode="I" glyph-name="I" horiz-adv-x="804" d="M727 0H80Q77 0 77 4T80 8H264Q276 8 276 16V1436Q276 1444 264 1444H80Q77 1444 77 1448T80 1452H727Q730 1452 730 1448T727 1444H543Q530 1444 530 1436V16Q530 8 543 8H727Q730 8 730 4T727 0Z" />
<glyph unicode="J" glyph-name="J" horiz-adv-x="1011" d="M985 1444H801Q788 1444 788 1436V342Q788 164 679 65T375 -35Q236 -35 133 53T29 244Q29 320 78 369T186 418Q247 418 290 374T334 270Q334 238 325 216T301 182T273 159T250 132T240 92Q240 45 282
8T375 -29Q446 -29 490 14T535 139V1436Q535 1444 522 1444H338Q335 1444 335 1448T338 1452H985Q988 1452 988 1448T985 1444Z" />
<glyph unicode="K" glyph-name="K" horiz-adv-x="1392" d="M1581 0H846Q843 0 843 4T846 8H1059Q1069 8 1065 16L530 719V16Q530 8 543 8H727Q730 8 730 4T727 0H80Q77 0 77 4T80 8H264Q276 8 276 16V1436Q276 1444 264 1444H80Q77 1444 77 1448T80 1452H727Q730
1452 730 1448T727 1444H543Q530 1444 530 1436V731L1079 1358Q1155 1440 1137 1444H946Q943 1444 943 1448T946 1452H1358Q1361 1452 1361 1448T1358 1444H1184Q1173 1444 1161 1433T1092 1358L688 897L1374 16Q1378 8 1393 8H1581Q1584 8 1584 4T1581 0Z" />
<glyph unicode="L" glyph-name="L" horiz-adv-x="1263" d="M1225 6Q1225 0 1219 0H80Q77 0 77 4T80 8H264Q276 8 276 16V1436Q276 1444 264 1444H80Q77 1444 77 1448T80 1452H727Q730 1452 730 1448T727 1444H543Q530 1444 530 1436V16Q530 8 543 8H780Q894 8
981 48T1118 156T1192 299T1217 459Q1217 462 1221 462T1225 459V6Z" />
<glyph unicode="M" glyph-name="M" horiz-adv-x="1826" d="M1747 0H1100Q1097 0 1097 4T1100 8H1284Q1296 8 1296 16V1432L827 -27Q826 -32 822 -32T817 -27L276 1432V16Q276 8 289 8H473Q476 8 476 4T473 0H70Q67 0 67 4T70 8H254Q266 8 266 16V1436Q266 1444
254 1444H70Q67 1444 67 1448T70 1452H512Q530 1452 545 1415L938 360L1280 1415Q1290 1452 1307 1452H1747Q1750 1452 1750 1448T1747 1444H1565Q1550 1444 1550 1436V16Q1550 8 1565 8H1747Q1750 8 1750 4T1747 0Z" />
<glyph unicode="N" glyph-name="N" horiz-adv-x="1523" d="M1464 1444H1280Q1268 1444 1268 1436V-27Q1268 -36 1260 -31Q1257 -30 1255 -27L276 1432V16Q276 8 289 8H473Q476 8 476 4T473 0H70Q67 0 67 4T70 8H254Q266 8 266 16V1436Q266 1444 254 1444H70Q67
1444 67 1448T70 1452H539Q560 1452 584 1415L1257 403V1436Q1257 1444 1245 1444H1061Q1058 1444 1058 1448T1061 1452H1464Q1467 1452 1467 1448T1464 1444Z" />
<glyph unicode="O" glyph-name="O" horiz-adv-x="1566" d="M1464 880T1464 725T1410 430T1265 187T1048 25T782 -35Q598 -35 442 66T194 343T102 725Q102 928 188 1102T432 1381T782 1487Q921 1487 1047 1427T1264 1265T1410 1022ZM1192 725Q1192 1248 1032 1399Q947
1479 782 1479Q620 1479 535 1399Q375 1248 375 725Q375 522 393 389T445 180T535 51Q623 -29 782 -29Q944 -29 1032 51Q1088 104 1121 179T1173 388T1192 725Z" />
<glyph unicode="P" glyph-name="P" horiz-adv-x="1341" d="M1278 1001Q1278 814 1131 698T739 582Q629 582 530 606V16Q530 8 543 8H727Q730 8 730 4T727 0H80Q77 0 77 4T80 8H264Q276 8 276 16V1436Q276 1444 264 1444H80Q77 1444 77 1448T80 1452H698Q970 1452
1124 1324T1278 1001ZM1028 784T1028 1001T939 1331T698 1444H543Q530 1444 530 1436V623Q606 590 739 590Q888 590 958 687Z" />
<glyph unicode="Q" glyph-name="Q" horiz-adv-x="1566" d="M1462 725Q1462 508 1362 327T1098 51Q1039 16 964 -13T796 -72T659 -119Q797 -119 895 -140T1047 -196T1137 -272T1200 -355T1259 -430T1348 -486T1491 -508Q1494 -508 1494 -511T1491 -514Q1365 -514
1265 -501T1101 -466T990 -414T914 -353T864 -288T825 -227T786 -176T732 -140T653 -127Q632 -127 608 -142T578 -158Q565 -158 565 -147Q565 -131 635 -119Q673 -103 718 -88T824 -53T913 -23Q852 -35 782 -35Q598 -35 442 66T194 343T102 725Q102 928 188 1102T432
1381T782 1487Q921 1487 1047 1427T1264 1265T1408 1022T1462 725ZM1190 725Q1190 996 1151 1159T1030 1399Q945 1479 782 1479Q620 1479 535 1399Q453 1323 414 1160T375 725Q375 425 412 278T535 51Q623 -29 782 -29Q942 -29 1030 51Q1115 130 1152 277T1190
725Z" />
<glyph unicode="R" glyph-name="R" horiz-adv-x="1431" d="M1550 37Q1478 -35 1356 -35Q1289 -35 1232 -14T1127 53T1053 177T1026 362V496Q1026 626 940 689T705 752H528V16Q528 8 543 8H756Q759 8 759 4T756 0H80Q77 0 77 4T80 8H264Q276 8 276 16V1436Q276
1444 264 1444H80Q77 1444 77 1448T80 1452H723Q951 1452 1087 1351T1223 1096Q1223 952 1096 854T776 756Q1036 756 1162 647T1288 358V174Q1288 93 1322 39T1415 -16Q1493 -16 1546 43Q1550 44 1550 37ZM969 1087Q969 1275 895 1359T670 1444H543Q528 1444 528
1436V760H705Q809 760 864 788T944 885T969 1087Z" />
<glyph unicode="S" glyph-name="S" horiz-adv-x="1153" d="M1094 430Q1094 369 1074 305T1011 180T909 71T767 -6T588 -35Q524 -35 458 -14T334 28T238 49Q194 49 161 25T123 -29Q121 -35 117 -33Q115 -32 115 -29V440Q115 446 120 444Q123 443 123 440Q123 377
158 298T251 145T399 21T586 -29Q673 -29 746 -4T865 61T937 150T963 250Q963 299 953 338T916 412T857 473T768 528T654 580T508 635Q427 664 369 696T259 777T182 894T156 1051Q156 1229 274 1358T551 1487Q606 1487 696 1460T831 1432Q907 1432 918 1481Q918
1487 923 1485Q926 1484 926 1481V1122Q926 1119 922 1119T918 1122Q918 1216 864 1299T726 1431T553 1479Q432 1479 350 1403T268 1219Q268 1110 362 1025T653 870Q742 839 804 812T924 747T1017 666T1073 563T1094 430Z" />
<glyph unicode="T" glyph-name="T" horiz-adv-x="1325" d="M1284 991Q1284 988 1280 988T1276 991Q1276 1082 1249 1162T1170 1306T1032 1407T836 1444H799Q786 1444 786 1436V16Q786 8 799 8H983Q986 8 986 4T983 0H336Q333 0 333 4T336 8H520Q532 8 532 16V1436Q532
1444 520 1444H483Q373 1444 288 1407T152 1306T75 1163T49 991Q49 988 45 988T41 991V1446Q41 1452 47 1452H1280Q1284 1452 1284 1446V991Z" />
<glyph unicode="U" glyph-name="U" horiz-adv-x="1492" d="M1475 1444H1290Q1278 1444 1278 1436V430Q1278 210 1154 88T774 -35Q654 -35 557 -7T387 76T276 217T236 416V1436Q236 1444 223 1444H39Q36 1444 36 1448T39 1452H686Q689 1452 689 1448T686 1444H502Q489
1444 489 1436V416Q489 205 569 98T827 -10Q1050 -10 1159 108T1268 430V1436Q1268 1444 1255 1444H1071Q1068 1444 1068 1448T1071 1452H1475Q1478 1452 1478 1448T1475 1444Z" />
<glyph unicode="V" glyph-name="V" horiz-adv-x="1443" d="M1501 1444H1329Q1318 1444 1309 1429T1280 1358L786 -31Q784 -36 781 -36T776 -31L129 1436Q126 1444 113 1444H-74Q-77 1444 -77 1448T-74 1452H633Q639 1452 637 1447Q636 1444 633 1444H414Q406 1444
404 1443T403 1436L893 295L1270 1358Q1298 1438 1290 1443Q1288 1444 1284 1444H1087Q1084 1444 1084 1448T1087 1452H1501Q1504 1452 1504 1448T1501 1444Z" />
<glyph unicode="W" glyph-name="W" horiz-adv-x="2084" d="M2189 1444H2019Q2012 1444 2007 1439T1991 1415T1968 1358L1487 -31Q1486 -34 1481 -34T1475 -31L1077 1038L705 -31Q701 -41 694 -31L109 1436Q103 1444 92 1444H-94Q-100 1444 -98 1449Q-97 1452 -94
1452H582Q585 1452 585 1448T582 1444H391Q384 1444 382 1443T381 1436L821 322L1071 1051L928 1436Q928 1439 921 1441T911 1444H756Q753 1444 753 1448T756 1452H1423Q1426 1452 1426 1448T1423 1444H1202Q1195 1444 1193 1442T1192 1436L1599 315L1962 1368Q1972
1395 1976 1409T1982 1431T1981 1442T1972 1444H1776Q1773 1444 1773 1448T1776 1452H2189Q2192 1452 2192 1448T2189 1444Z" />
<glyph unicode="X" glyph-name="X" horiz-adv-x="1437" d="M1509 0H805Q802 0 802 4T805 8H1018Q1028 8 1024 16L670 639L332 94Q286 19 290 12Q291 8 301 8H485Q488 8 488 4T485 0H72Q69 0 69 4T72 8H250Q267 8 319 94L664 649L209 1436Q205 1444 193 1444H2Q-1
1444 -1 1448T2 1452H707Q710 1452 710 1448T707 1444H496Q490 1444 488 1442T487 1436L803 883L1096 1358Q1140 1432 1136 1440Q1135 1444 1124 1444H942Q939 1444 939 1448T942 1452H1354Q1357 1452 1357 1448T1354 1444H1178Q1160 1444 1106 1358L809 872L1303
16Q1307 8 1321 8H1509Q1512 8 1512 4T1509 0Z" />
<glyph unicode="Y" glyph-name="Y" horiz-adv-x="1343" d="M1395 1444H1235Q1225 1444 1213 1428T1174 1358L846 668V16Q846 8 860 8H1044Q1048 8 1048 4T1044 0H397Q394 0 394 4T397 8H582Q594 8 594 16V633L174 1436Q170 1444 158 1444H-33Q-36 1444 -36 1448T-33
1452H682Q685 1452 685 1448T682 1444H461Q449 1444 453 1436L844 684L1165 1358Q1201 1435 1197 1441Q1195 1444 1188 1444H981Q978 1444 978 1448T981 1452H1395Q1398 1452 1398 1448T1395 1444Z" />
<glyph unicode="Z" glyph-name="Z" horiz-adv-x="1318" d="M1212 6Q1212 0 1208 0H119Q109 0 115 16L934 1436Q938 1444 926 1444H627Q526 1444 443 1407T307 1307T224 1163T195 991Q195 988 191 988T186 991V1446Q186 1452 193 1452H1202Q1214 1452 1204 1436L387
16Q383 8 395 8H764Q864 8 949 47T1089 150T1175 297T1206 469Q1206 472 1209 472T1212 469V6Z" />
<glyph unicode="[" glyph-name="bracketleft" horiz-adv-x="534" d="M588 -500H182Q174 -500 174 -492V1503Q174 1509 182 1509H588Q591 1509 591 1506T588 1503H375Q360 1503 360 1495V-485Q360 -492 375 -492H588Q591 -492 591 -496T588 -500Z" />
<glyph unicode="\" glyph-name="backslash" horiz-adv-x="733" d="M606 -43Q606 -46 602 -48T596 -47L-59 1544Q-60 1547 -56 1549T-51 1548L606 -43Z" />
<glyph unicode="]" glyph-name="bracketright" horiz-adv-x="534" d="M360 -492Q360 -500 354 -500H-53Q-56 -500 -56 -496T-53 -492H160Q174 -492 174 -485V1495Q174 1503 160 1503H-53Q-56 1503 -56 1506T-53 1509H354Q360 1509 360 1503V-492Z" />
<glyph unicode="^" glyph-name="asciicircum" horiz-adv-x="667" d="M616 1085Q618 1082 616 1080T610 1079L342 1251L96 1079Q93 1078 91 1080T90 1085Q284 1311 348 1411Q352 1415 356 1411Q424 1307 616 1085Z" />
<glyph unicode="_" glyph-name="underscore" horiz-adv-x="1167" d="M1096 0H72Q69 0 69 4T72 8H1096Q1099 8 1099 4T1096 0Z" />
<glyph unicode="`" glyph-name="grave" horiz-adv-x="724" d="M627 1063Q630 1063 629 1060T625 1057Q490 1089 395 1130T254 1212T189 1289T170 1360Q170 1388 189 1406T238 1425Q261 1425 280 1409T315 1365T348 1305T389 1235T443 1166T520 1105T627 1063Z" />
<glyph unicode="a" glyph-name="a" horiz-adv-x="892" d="M887 63Q876 33 836 9T743 -16Q678 -16 635 20T580 117Q560 53 499 19T352 -16Q298 -16 251 -5T163 30T98 97T74 199Q74 260 95 307T144 381T213 426T282 450T342 459Q490 472 526 483Q569 497 569 520V676Q569
789 529 837T424 885Q383 885 357 860T330 784Q330 768 338 746T346 707Q346 677 323 656T254 635Q213 635 192 662T170 727Q170 787 241 840T424 893Q754 893 754 522V82Q754 12 807 12Q831 12 852 30T879 66Q881 71 886 67Q888 66 887 63ZM569 143V494Q548 480
517 473T442 460T381 451Q322 440 288 385T254 199Q254 136 265 94T298 33T341 7T389 0Q463 0 516 43T569 143Z" />
<glyph unicode="b" glyph-name="b" horiz-adv-x="1046" d="M965 430Q965 318 908 215T751 47T537 -18Q421 -18 348 66V6Q348 0 342 0H39Q36 0 36 4T39 8H152Q164 8 164 16V1489Q164 1497 152 1497H39Q36 1497 36 1501T39 1505H342Q348 1505 348 1499V807Q422 891
537 891Q651 891 751 823T908 649T965 430ZM772 430Q772 753 682 836Q631 883 537 883Q420 883 348 793V102Q369 48 422 19T537 -10Q630 -10 682 37Q772 118 772 430Z" />
<glyph unicode="c" glyph-name="c" horiz-adv-x="892" d="M852 176Q792 86 702 34T508 -18Q330 -18 205 115T80 436T205 757T508 891Q640 891 718 832T797 694Q797 604 709 604Q671 604 648 626T625 678Q625 702 637 727T649 782Q649 837 616 860T508 883Q416
883 362 836Q313 789 292 702T270 436T291 171T362 37Q414 -10 508 -10Q612 -10 700 41T844 180Q846 182 849 181T852 176Z" />
<glyph unicode="d" glyph-name="d" horiz-adv-x="1026" d="M1010 0H705Q698 0 698 6V96Q684 51 636 17T510 -18Q396 -18 297 47T141 215T84 430Q84 543 140 649T296 823T510 891Q627 891 698 807V1489Q698 1497 686 1497H573Q570 1497 570 1501T573 1505H879Q883
1505 883 1499V16Q883 8 897 8H1010Q1013 8 1013 4T1010 0ZM698 147V793Q629 883 510 883Q418 883 367 836Q272 750 272 430Q272 122 367 37Q419 -10 510 -10Q598 -10 648 35T698 147Z" />
<glyph unicode="e" glyph-name="e" horiz-adv-x="935" d="M866 494Q866 487 860 487H274V436Q274 254 293 168T360 37Q412 -10 502 -10Q607 -10 694 41T838 180Q840 182 842 181T844 176Q786 86 697 34T502 -18Q326 -18 204 115T82 436T204 757T502 891Q575 891
637 865T741 796T811 700T853 594T866 494ZM688 496Q685 634 669 715T618 836Q574 883 502 883Q414 883 360 836Q318 797 299 716T276 496H688Z" />
<glyph unicode="f" glyph-name="f" horiz-adv-x="612" d="M727 1372Q727 1331 700 1302T633 1272Q589 1272 566 1292T543 1346Q543 1370 556 1394T569 1448Q569 1511 504 1511Q454 1511 422 1455T389 1270V881Q389 872 401 872H571Q574 872 574 868T571 864H401Q389
864 389 856V16Q389 8 401 8H514Q517 8 517 4T514 0H80Q77 0 77 4T80 8H193Q205 8 205 16V856Q205 864 193 864H51Q48 864 48 868T51 872H193Q205 872 205 881V922Q205 1524 547 1524Q619 1524 673 1482T727 1372Z" />
<glyph unicode="g" glyph-name="g" horiz-adv-x="993" d="M1036 801Q1036 774 1018 752T973 729Q946 729 929 744T911 778Q911 794 919 807T928 829Q928 844 918 853T891 862Q819 862 774 762Q842 671 842 563Q842 427 743 330T504 233Q429 233 361 265T246 352Q178
307 178 215Q178 128 220 95T367 61H602Q808 61 909 -15T1010 -258Q1010 -331 980 -395T899 -504T785 -581T653 -629T518 -645Q314 -645 184 -564T53 -365Q53 -279 113 -200T262 -98Q181 -75 138 -23T94 106Q94 193 130 251T242 358Q168 450 168 563Q168 699 266
795T504 891Q670 891 766 768Q826 891 936 891Q976 891 1006 868T1036 801ZM672 563Q672 791 608 852Q574 885 504 885Q436 885 401 852Q338 792 338 563Q338 434 352 372T401 276Q439 242 504 242Q571 242 608 276Q643 309 657 371T672 563ZM905 -344Q905 -243
843 -176T672 -109H348Q312 -109 279 -100Q238 -126 214 -187T190 -338Q190 -497 272 -568T518 -639Q620 -639 706 -607T848 -506T905 -344Z" />
<glyph unicode="h" glyph-name="h" horiz-adv-x="1060" d="M1042 0H606Q603 0 603 4T606 8H719Q733 8 733 16V674Q733 775 686 829T580 883Q486 883 429 836T348 711V16Q348 8 360 8H473Q476 8 476 4T473 0H39Q36 0 36 4T39 8H152Q164 8 164 16V1489Q164 1497
152 1497H39Q36 1497 36 1501T39 1505H342Q348 1505 348 1499V731Q374 812 438 851T580 891Q737 891 826 801T915 549V16Q915 8 930 8H1042Q1046 8 1046 4T1042 0Z" />
<glyph unicode="i" glyph-name="i" horiz-adv-x="532" d="M395 1391Q395 1342 361 1307T276 1272Q227 1272 193 1307T158 1391Q158 1439 193 1474T276 1509Q325 1509 360 1474T395 1391ZM496 0H59Q56 0 56 4T59 8H172Q184 8 184 16V856Q184 864 172 864H59Q56
864 56 868T59 872H365Q369 872 369 866V16Q369 8 383 8H496Q499 8 499 4T496 0Z" />
<glyph unicode="j" glyph-name="j" horiz-adv-x="542" d="M395 1391Q395 1342 361 1307T276 1272Q227 1272 193 1307T158 1391Q158 1439 193 1474T276 1509Q325 1509 360 1474T395 1391ZM369 -47Q369 -213 347 -331T280 -518T177 -618T39 -649Q-36 -649 -89 -611T-143
-506Q-143 -465 -117 -437T-49 -408Q-5 -408 19 -427T43 -479Q43 -503 30 -527T16 -580Q16 -612 31 -625T80 -639Q184 -639 184 -397V856Q184 864 172 864H59Q56 864 56 868T59 872H362Q369 872 369 866V-47Z" />
<glyph unicode="k" glyph-name="k" horiz-adv-x="974" d="M1067 0H586Q583 0 583 4T586 8H698Q710 8 705 16L348 469V16Q348 8 360 8H473Q476 8 476 4T473 0H39Q33 0 35 5Q36 8 39 8H150Q164 8 164 16V1489Q164 1497 150 1497H39Q33 1497 35 1502Q36 1505 39 1505H342Q348
1505 348 1499V481L674 778Q763 859 754 863Q753 864 750 864H606Q600 864 602 869Q603 872 606 872H909Q915 872 913 867Q912 864 909 864H799Q786 864 765 849T684 778L469 582L922 16Q925 8 940 8H1067Q1070 8 1070 4T1067 0Z" />
<glyph unicode="l" glyph-name="l" horiz-adv-x="489" d="M473 0H39Q36 0 36 4T39 8H150Q164 8 164 16V1489Q164 1497 150 1497H39Q36 1497 36 1501T39 1505H342Q346 1505 346 1499V16Q346 8 360 8H473Q476 8 476 4T473 0Z" />
<glyph unicode="m" glyph-name="m" horiz-adv-x="1628" d="M1610 0H1176Q1169 0 1171 5Q1172 8 1176 8H1286Q1300 8 1300 16V674Q1300 775 1254 829T1147 883Q1045 883 980 823T915 696V16Q915 8 930 8H1042Q1046 8 1046 4T1042 0H606Q603 0 603 4T606 8H719Q731
8 731 16V674Q731 775 685 829T580 883Q486 883 429 836T348 711V16Q348 8 360 8H473Q476 8 476 4T473 0H39Q33 0 35 5Q36 8 39 8H152Q164 8 164 16V856Q164 864 152 864H39Q33 864 35 869Q36 872 39 872H342Q348 872 348 866V731Q374 812 438 851T580 891Q845
891 909 715Q926 798 998 844T1147 891Q1311 891 1398 820T1485 592V16Q1485 8 1497 8H1610Q1613 8 1613 4T1610 0Z" />
<glyph unicode="n" glyph-name="n" horiz-adv-x="1060" d="M1042 0H606Q603 0 603 4T606 8H719Q733 8 733 16V674Q733 773 686 828T580 883Q486 883 429 836T348 711V16Q348 8 360 8H473Q476 8 476 4T473 0H39Q36 0 36 4T39 8H152Q164 8 164 16V856Q164 864 152
864H39Q36 864 36 868T39 872H342Q348 872 348 866V731Q374 812 438 851T580 891Q737 891 826 801T915 549V16Q915 8 930 8H1042Q1046 8 1046 4T1042 0Z" />
<glyph unicode="o" glyph-name="o" horiz-adv-x="1017" d="M936 436Q936 313 879 209T723 43T508 -18T294 43T139 208T82 436T139 664T294 830T508 891Q685 891 810 758T936 436ZM745 436Q745 750 653 836Q599 883 508 883Q415 883 365 836Q272 749 272 436Q272
257 293 170T365 37Q413 -10 508 -10Q601 -10 653 37Q703 83 724 170T745 436Z" />
<glyph unicode="p" glyph-name="p" horiz-adv-x="1046" d="M965 430Q965 318 908 215T751 47T537 -18Q421 -18 348 66V-616Q348 -625 360 -625H473Q476 -625 476 -629T473 -633H39Q36 -633 36 -629T39 -625H152Q164 -625 164 -616V856Q164 864 152 864H39Q36 864
36 868T39 872H342Q348 872 348 866V807Q422 891 537 891Q651 891 751 823T908 649T965 430ZM774 430Q774 751 682 836Q631 883 537 883Q420 883 348 793V102Q369 48 422 19T537 -10Q635 -10 682 37Q774 120 774 430Z" />
<glyph unicode="q" glyph-name="q" horiz-adv-x="1026" d="M1008 -633H573Q570 -633 570 -629T573 -625H686Q698 -625 698 -616V96Q684 50 636 16T510 -18Q396 -18 296 47T139 215T82 430Q82 543 139 649T296 823T510 891T698 807V866Q698 872 705 872H1008Q1011
872 1011 868T1008 864H895Q883 864 883 856V-616Q883 -625 895 -625H1008Q1011 -625 1011 -629T1008 -633ZM698 147V793Q626 883 510 883Q415 883 365 836Q272 752 272 430Q272 120 365 37Q411 -10 510 -10Q598 -10 648 35T698 147Z" />
<glyph unicode="r" glyph-name="r" horiz-adv-x="749" d="M700 754Q700 715 672 687T604 659Q561 659 536 679T510 729Q510 753 523 774T537 811Q537 836 521 850T481 864Q395 864 348 707V16Q348 8 360 8H473Q476 8 476 4T473 0H39Q36 0 36 4T39 8H152Q164 8
164 16V858Q164 864 152 864H39Q36 864 36 868T39 872H342Q348 872 348 866V731Q375 816 421 853T537 891Q609 891 654 855T700 754Z" />
<glyph unicode="s" glyph-name="s" horiz-adv-x="753" d="M698 274Q698 145 621 64T403 -18Q343 -18 273 9T168 37Q143 37 121 24T96 -2Q93 -10 88 -2L98 299Q98 302 102 302T106 299Q101 183 189 87T403 -10Q491 -10 542 34T594 166Q594 243 537 291T358 377Q249
410 185 471T121 621Q121 744 193 817T365 891Q396 891 440 881T532 870Q575 870 575 899Q575 902 579 902T584 899V653Q584 650 580 650T575 653Q575 755 510 819T365 883Q290 883 250 848T209 741Q209 666 265 619T442 537Q559 502 628 437T698 274Z" />
<glyph unicode="t" glyph-name="t" horiz-adv-x="602" d="M569 162Q525 -18 362 -18Q271 -18 228 31T184 180V858Q184 864 170 864H29Q26 864 26 868T29 872H170Q184 872 184 881V1102Q248 1110 296 1139T360 1212Q360 1217 364 1216Q367 1215 367 1212V881Q367
872 381 872H551Q554 872 554 868T551 864H381Q367 864 367 858V72Q367 43 383 28T426 12Q469 12 506 52T563 164Q563 167 566 166T569 162Z" />
<glyph unicode="u" glyph-name="u" horiz-adv-x="1040" d="M1022 0H717Q713 0 713 6V143Q686 62 622 23T479 -16Q320 -16 232 66T143 309V858Q143 864 131 864H18Q15 864 15 868T18 872H322Q328 872 328 866V199Q328 99 374 46T479 -8Q657 -8 713 162V858Q713
864 698 864H586Q583 864 583 868T586 872H891Q895 872 895 866V16Q895 8 909 8H1022Q1025 8 1025 4T1022 0Z" />
<glyph unicode="v" glyph-name="v" horiz-adv-x="849" d="M907 864H799Q787 864 779 850T750 780L457 -14Q456 -18 452 -18T446 -14L47 858Q44 864 31 864H-66Q-72 864 -70 869Q-69 872 -66 872H362Q366 872 366 868T362 864H256Q249 864 247 863T246 858L528
197L741 778Q769 858 762 863Q760 864 756 864H645Q642 864 642 868T645 872H907Q910 872 910 868T907 864Z" />
<glyph unicode="w" glyph-name="w" horiz-adv-x="1366" d="M1430 864H1323Q1311 864 1302 849T1274 780L995 -14Q994 -18 989 -18T983 -14L684 668L444 -14Q442 -18 438 -18T432 -14L49 858Q46 864 33 864H-66Q-69 864 -69 868T-66 872H350Q353 872 353 868T350
864H250Q243 864 241 863T240 858L518 219L680 680L600 858Q594 864 584 864H500Q497 864 497 868T500 872H913Q920 872 918 867Q917 864 913 864H801Q789 864 791 858L1069 221L1266 778Q1294 859 1283 863Q1282 864 1278 864H1167Q1164 864 1164 868T1167 872H1430Q1433
872 1433 868T1430 864Z" />
<glyph unicode="x" glyph-name="x" horiz-adv-x="948" d="M989 0H549Q546 0 546 4T549 8H653Q661 8 663 10T662 16L422 381L209 94Q152 14 159 9Q160 8 164 8H311Q314 8 314 4T311 0H6Q3 0 3 4T6 8H115Q128 8 143 23T199 94L418 389L109 858Q102 864 90 864H-8Q-11
864 -11 868T-8 872H432Q435 872 435 868T432 864H326Q319 864 317 863T317 858L524 545L698 778Q755 858 745 863Q743 864 739 864H596Q590 864 592 869Q593 872 596 872H899Q905 872 903 867Q902 864 899 864H786Q775 864 762 850T707 780L528 537L872 16Q875
8 889 8H989Q992 8 992 4T989 0Z" />
<glyph unicode="y" glyph-name="y" horiz-adv-x="849" d="M907 864H799Q787 864 779 850T750 780L285 -483Q251 -577 216 -613T119 -649Q55 -649 14 -618T-27 -530Q-27 -481 2 -448T74 -414Q114 -414 137 -436T160 -489Q160 -515 140 -544T119 -594Q119 -623 172
-623Q226 -623 274 -487L449 -20L47 858Q44 864 31 864H-66Q-72 864 -70 869Q-69 872 -66 872H362Q366 872 366 868T362 864H256Q249 864 247 863T246 858L526 199L741 778Q770 858 761 863Q760 864 756 864H645Q642 864 642 868T645 872H907Q910 872 910 868T907
864Z" />
<glyph unicode="z" glyph-name="z" horiz-adv-x="862" d="M776 6Q776 0 770 0H53Q45 0 51 16L569 858Q571 861 569 862T559 864H406Q263 864 192 796T121 604Q121 601 117 601T113 604V866Q113 872 117 872H758Q770 872 760 858L242 16Q240 11 242 10T252 8H455Q609
8 688 86T768 295Q768 298 772 298T776 295V6Z" />
<glyph unicode="{" glyph-name="braceleft" horiz-adv-x="557" d="M561 -500H532Q353 -500 256 -383T158 -72Q158 0 180 81T230 221T280 341T303 440Q303 489 270 498Q250 502 248 502Q236 502 220 499T197 496Q180 496 180 506Q180 514 197 514Q204 514 220 512T248
510T270 514Q303 523 303 569Q303 607 281 669T231 789T181 929T158 1081Q158 1274 255 1391T532 1509H561Q564 1509 564 1506T561 1503H532Q422 1503 369 1424T315 1167Q315 1094 353 918T391 664Q391 614 358 567T268 506Q325 490 358 443T391 346Q391 269 353
92T315 -158Q315 -334 368 -413T532 -492H561Q564 -492 564 -496T561 -500Z" />
<glyph unicode="|" glyph-name="bar" horiz-adv-x="315" d="M162 -47Q162 -50 158 -50T154 -47V1548Q154 1551 158 1551T162 1548V-47Z" />
<glyph unicode="}" glyph-name="braceright" horiz-adv-x="557" d="M399 -72Q399 -265 302 -382T25 -500H-4Q-7 -500 -7 -496T-4 -492H25Q135 -492 188 -413T242 -158Q242 -85 204 92T166 346Q166 396 199 443T289 506Q232 520 199 567T166 664Q166 742 204 918T242
1167Q242 1344 189 1423T25 1503H-4Q-7 1503 -7 1506T-4 1509H25Q204 1509 301 1392T399 1081Q399 1010 377 929T327 790T277 669T254 569Q254 522 289 514Q297 510 309 510T337 512T360 514Q377 514 377 506Q377 496 360 496Q353 496 337 499T309 502Q305 502
289 498Q254 490 254 440Q254 395 290 311T362 124T399 -72Z" />
<glyph unicode="~" glyph-name="asciitilde" horiz-adv-x="831" d="M758 848Q758 751 693 686T532 621Q486 621 436 641T350 684T274 728T203 748Q150 748 116 705T82 602Q82 599 78 599T74 602Q74 699 138 763T297 827Q344 827 394 808T481 765T558 722T629 702Q681
702 715 745T750 848Q750 851 754 851T758 848Z" />
</font>
</defs>
</svg>
